<?xml version="1.0" encoding="utf-8" standalone="no"?>
<!DOCTYPE svg PUBLIC "-//W3C//DTD SVG 1.1//EN"
  "http://www.w3.org/Graphics/SVG/1.1/DTD/svg11.dtd">
<!-- Created with matplotlib (https://matplotlib.org/) -->
<svg height="552.24pt" version="1.1" viewBox="0 0 1105.92 552.24" width="1105.92pt" xmlns="http://www.w3.org/2000/svg" xmlns:xlink="http://www.w3.org/1999/xlink">
 <defs>
  <style type="text/css">
*{stroke-linecap:butt;stroke-linejoin:round;}
  </style>
 </defs>
 <g id="figure_1">
  <g id="patch_1">
   <path d="M 0 552.24 
L 1105.92 552.24 
L 1105.92 0 
L 0 0 
z
" style="fill:#ffffff;"/>
  </g>
  <g id="patch_2">
   <path d="M 380.251909 552.24 
L 725.668091 552.24 
L 725.668091 0 
L 380.251909 0 
z
" style="fill:#ffffff;"/>
  </g>
  <g id="pane3d_1">
   <g id="patch_3">
    <path d="M 646.547482 410.588204 
L 663.258139 437.40106 
L 663.659547 110.221493 
L 646.851969 115.675089 
" style="fill:#f2f2f2;opacity:0.5;stroke:#f2f2f2;stroke-linejoin:miter;"/>
   </g>
  </g>
  <g id="pane3d_2">
   <g id="patch_4">
    <path d="M 646.547482 410.588204 
L 462.086541 411.417862 
L 461.758269 115.506403 
L 646.851969 115.675089 
" style="fill:#e6e6e6;opacity:0.5;stroke:#e6e6e6;stroke-linejoin:miter;"/>
   </g>
  </g>
  <g id="pane3d_3">
   <g id="patch_5">
    <path d="M 646.547482 410.588204 
L 462.086541 411.417862 
L 458.61525 438.422444 
L 663.258139 437.40106 
" style="fill:#ececec;opacity:0.5;stroke:#ececec;stroke-linejoin:miter;"/>
   </g>
  </g>
  <g id="axis3d_1">
   <g id="line2d_1">
    <path d="M 663.258139 437.40106 
L 458.61525 438.422444 
" style="fill:none;stroke:#000000;stroke-linecap:square;stroke-width:0.8;"/>
   </g>
   <g id="text_1">
    <!-- X -->
    <defs>
     <path d="M 6.296875 72.90625 
L 16.890625 72.90625 
L 35.015625 45.796875 
L 53.21875 72.90625 
L 63.8125 72.90625 
L 40.375 37.890625 
L 65.375 0 
L 54.78125 0 
L 34.28125 31 
L 13.625 0 
L 2.984375 0 
L 29 38.921875 
z
" id="DejaVuSans-88"/>
    </defs>
    <g transform="translate(558.500782 479.222072)scale(0.1 -0.1)">
     <use xlink:href="#DejaVuSans-88"/>
    </g>
   </g>
   <g id="Line3DCollection_1">
    <path d="M 649.037773 437.472035 
L 633.725119 410.645875 
L 633.98576 115.663364 
" style="fill:none;stroke:#b0b0b0;stroke-width:0.8;"/>
    <path d="M 608.723096 437.673247 
L 597.37736 410.809358 
L 597.513598 115.630124 
" style="fill:none;stroke:#b0b0b0;stroke-width:0.8;"/>
    <path d="M 568.348753 437.874758 
L 560.981117 410.973059 
L 560.992618 115.596841 
" style="fill:none;stroke:#b0b0b0;stroke-width:0.8;"/>
    <path d="M 527.914612 438.076567 
L 524.536293 411.136979 
L 524.422724 115.563512 
" style="fill:none;stroke:#b0b0b0;stroke-width:0.8;"/>
    <path d="M 487.420539 438.278675 
L 488.042789 411.301117 
L 487.803815 115.530139 
" style="fill:none;stroke:#b0b0b0;stroke-width:0.8;"/>
   </g>
   <g id="xtick_1">
    <g id="line2d_2">
     <path d="M 648.901992 437.234162 
L 649.310047 437.949031 
" style="fill:none;stroke:#000000;stroke-linecap:square;stroke-width:0.8;"/>
    </g>
    <g id="text_2">
     <!-- 0.40 -->
     <defs>
      <path d="M 31.78125 66.40625 
Q 24.171875 66.40625 20.328125 58.90625 
Q 16.5 51.421875 16.5 36.375 
Q 16.5 21.390625 20.328125 13.890625 
Q 24.171875 6.390625 31.78125 6.390625 
Q 39.453125 6.390625 43.28125 13.890625 
Q 47.125 21.390625 47.125 36.375 
Q 47.125 51.421875 43.28125 58.90625 
Q 39.453125 66.40625 31.78125 66.40625 
z
M 31.78125 74.21875 
Q 44.046875 74.21875 50.515625 64.515625 
Q 56.984375 54.828125 56.984375 36.375 
Q 56.984375 17.96875 50.515625 8.265625 
Q 44.046875 -1.421875 31.78125 -1.421875 
Q 19.53125 -1.421875 13.0625 8.265625 
Q 6.59375 17.96875 6.59375 36.375 
Q 6.59375 54.828125 13.0625 64.515625 
Q 19.53125 74.21875 31.78125 74.21875 
z
" id="DejaVuSans-48"/>
      <path d="M 10.6875 12.40625 
L 21 12.40625 
L 21 0 
L 10.6875 0 
z
" id="DejaVuSans-46"/>
      <path d="M 37.796875 64.3125 
L 12.890625 25.390625 
L 37.796875 25.390625 
z
M 35.203125 72.90625 
L 47.609375 72.90625 
L 47.609375 25.390625 
L 58.015625 25.390625 
L 58.015625 17.1875 
L 47.609375 17.1875 
L 47.609375 0 
L 37.796875 0 
L 37.796875 17.1875 
L 4.890625 17.1875 
L 4.890625 26.703125 
z
" id="DejaVuSans-52"/>
     </defs>
     <g transform="translate(638.727896 462.664663)scale(0.1 -0.1)">
      <use xlink:href="#DejaVuSans-48"/>
      <use x="63.623047" xlink:href="#DejaVuSans-46"/>
      <use x="95.410156" xlink:href="#DejaVuSans-52"/>
      <use x="159.033203" xlink:href="#DejaVuSans-48"/>
     </g>
    </g>
   </g>
   <g id="xtick_2">
    <g id="line2d_3">
     <path d="M 608.622484 437.435023 
L 608.92485 438.15095 
" style="fill:none;stroke:#000000;stroke-linecap:square;stroke-width:0.8;"/>
    </g>
    <g id="text_3">
     <!-- 0.45 -->
     <defs>
      <path d="M 10.796875 72.90625 
L 49.515625 72.90625 
L 49.515625 64.59375 
L 19.828125 64.59375 
L 19.828125 46.734375 
Q 21.96875 47.46875 24.109375 47.828125 
Q 26.265625 48.1875 28.421875 48.1875 
Q 40.625 48.1875 47.75 41.5 
Q 54.890625 34.8125 54.890625 23.390625 
Q 54.890625 11.625 47.5625 5.09375 
Q 40.234375 -1.421875 26.90625 -1.421875 
Q 22.3125 -1.421875 17.546875 -0.640625 
Q 12.796875 0.140625 7.71875 1.703125 
L 7.71875 11.625 
Q 12.109375 9.234375 16.796875 8.0625 
Q 21.484375 6.890625 26.703125 6.890625 
Q 35.15625 6.890625 40.078125 11.328125 
Q 45.015625 15.765625 45.015625 23.390625 
Q 45.015625 31 40.078125 35.4375 
Q 35.15625 39.890625 26.703125 39.890625 
Q 22.75 39.890625 18.8125 39.015625 
Q 14.890625 38.140625 10.796875 36.28125 
z
" id="DejaVuSans-53"/>
     </defs>
     <g transform="translate(598.203184 462.880006)scale(0.1 -0.1)">
      <use xlink:href="#DejaVuSans-48"/>
      <use x="63.623047" xlink:href="#DejaVuSans-46"/>
      <use x="95.410156" xlink:href="#DejaVuSans-52"/>
      <use x="159.033203" xlink:href="#DejaVuSans-53"/>
     </g>
    </g>
   </g>
   <g id="xtick_3">
    <g id="line2d_4">
     <path d="M 568.283414 437.636181 
L 568.479777 438.353169 
" style="fill:none;stroke:#000000;stroke-linecap:square;stroke-width:0.8;"/>
    </g>
    <g id="text_4">
     <!-- 0.50 -->
     <g transform="translate(557.618182 463.095668)scale(0.1 -0.1)">
      <use xlink:href="#DejaVuSans-48"/>
      <use x="63.623047" xlink:href="#DejaVuSans-46"/>
      <use x="95.410156" xlink:href="#DejaVuSans-53"/>
      <use x="159.033203" xlink:href="#DejaVuSans-48"/>
     </g>
    </g>
   </g>
   <g id="xtick_4">
    <g id="line2d_5">
     <path d="M 527.884649 437.837637 
L 527.974695 438.555687 
" style="fill:none;stroke:#000000;stroke-linecap:square;stroke-width:0.8;"/>
    </g>
    <g id="text_5">
     <!-- 0.55 -->
     <g transform="translate(516.972754 463.311652)scale(0.1 -0.1)">
      <use xlink:href="#DejaVuSans-48"/>
      <use x="63.623047" xlink:href="#DejaVuSans-46"/>
      <use x="95.410156" xlink:href="#DejaVuSans-53"/>
      <use x="159.033203" xlink:href="#DejaVuSans-53"/>
     </g>
    </g>
   </g>
   <g id="xtick_5">
    <g id="line2d_6">
     <path d="M 487.426058 438.039391 
L 487.409471 438.758506 
" style="fill:none;stroke:#000000;stroke-linecap:square;stroke-width:0.8;"/>
    </g>
    <g id="text_6">
     <!-- 0.60 -->
     <defs>
      <path d="M 33.015625 40.375 
Q 26.375 40.375 22.484375 35.828125 
Q 18.609375 31.296875 18.609375 23.390625 
Q 18.609375 15.53125 22.484375 10.953125 
Q 26.375 6.390625 33.015625 6.390625 
Q 39.65625 6.390625 43.53125 10.953125 
Q 47.40625 15.53125 47.40625 23.390625 
Q 47.40625 31.296875 43.53125 35.828125 
Q 39.65625 40.375 33.015625 40.375 
z
M 52.59375 71.296875 
L 52.59375 62.3125 
Q 48.875 64.0625 45.09375 64.984375 
Q 41.3125 65.921875 37.59375 65.921875 
Q 27.828125 65.921875 22.671875 59.328125 
Q 17.53125 52.734375 16.796875 39.40625 
Q 19.671875 43.65625 24.015625 45.921875 
Q 28.375 48.1875 33.59375 48.1875 
Q 44.578125 48.1875 50.953125 41.515625 
Q 57.328125 34.859375 57.328125 23.390625 
Q 57.328125 12.15625 50.6875 5.359375 
Q 44.046875 -1.421875 33.015625 -1.421875 
Q 20.359375 -1.421875 13.671875 8.265625 
Q 6.984375 17.96875 6.984375 36.375 
Q 6.984375 53.65625 15.1875 63.9375 
Q 23.390625 74.21875 37.203125 74.21875 
Q 40.921875 74.21875 44.703125 73.484375 
Q 48.484375 72.75 52.59375 71.296875 
z
" id="DejaVuSans-54"/>
     </defs>
     <g transform="translate(476.266765 463.527958)scale(0.1 -0.1)">
      <use xlink:href="#DejaVuSans-48"/>
      <use x="63.623047" xlink:href="#DejaVuSans-46"/>
      <use x="95.410156" xlink:href="#DejaVuSans-54"/>
      <use x="159.033203" xlink:href="#DejaVuSans-48"/>
     </g>
    </g>
   </g>
  </g>
  <g id="axis3d_2">
   <g id="line2d_7">
    <path d="M 462.086541 411.417862 
L 458.61525 438.422444 
" style="fill:none;stroke:#000000;stroke-linecap:square;stroke-width:0.8;"/>
   </g>
   <g id="text_7">
    <!-- Y -->
    <defs>
     <path d="M -0.203125 72.90625 
L 10.40625 72.90625 
L 30.609375 42.921875 
L 50.6875 72.90625 
L 61.28125 72.90625 
L 35.5 34.71875 
L 35.5 0 
L 25.59375 0 
L 25.59375 34.71875 
z
" id="DejaVuSans-89"/>
    </defs>
    <g transform="translate(436.600544 460.249143)scale(0.1 -0.1)">
     <use xlink:href="#DejaVuSans-89"/>
    </g>
   </g>
   <g id="Line3DCollection_2">
    <path d="M 647.878536 115.341997 
L 647.568488 412.226446 
L 461.874521 413.067245 
" style="fill:none;stroke:#b0b0b0;stroke-width:0.8;"/>
    <path d="M 649.798163 114.719131 
L 649.477591 415.289671 
L 461.478057 416.151502 
" style="fill:none;stroke:#b0b0b0;stroke-width:0.8;"/>
    <path d="M 651.766198 114.080557 
L 651.434668 418.429872 
L 461.071595 419.313535 
" style="fill:none;stroke:#b0b0b0;stroke-width:0.8;"/>
    <path d="M 653.784497 113.425675 
L 653.44155 421.649987 
L 460.654753 422.556321 
" style="fill:none;stroke:#b0b0b0;stroke-width:0.8;"/>
    <path d="M 655.85501 112.75385 
L 655.500163 424.953106 
L 460.227127 425.882996 
" style="fill:none;stroke:#b0b0b0;stroke-width:0.8;"/>
    <path d="M 657.979789 112.064418 
L 657.612534 428.342481 
L 459.788294 429.296856 
" style="fill:none;stroke:#b0b0b0;stroke-width:0.8;"/>
    <path d="M 660.160997 111.356676 
L 659.780795 431.821535 
L 459.337807 432.801376 
" style="fill:none;stroke:#b0b0b0;stroke-width:0.8;"/>
    <path d="M 662.400912 110.629886 
L 662.007195 435.393874 
L 458.875196 436.400214 
" style="fill:none;stroke:#b0b0b0;stroke-width:0.8;"/>
   </g>
   <g id="xtick_6">
    <g id="line2d_8">
     <path d="M 463.365092 413.060496 
L 458.893136 413.080745 
" style="fill:none;stroke:#000000;stroke-linecap:square;stroke-width:0.8;"/>
    </g>
    <g id="text_8">
     <!-- 1.35 -->
     <defs>
      <path d="M 12.40625 8.296875 
L 28.515625 8.296875 
L 28.515625 63.921875 
L 10.984375 60.40625 
L 10.984375 69.390625 
L 28.421875 72.90625 
L 38.28125 72.90625 
L 38.28125 8.296875 
L 54.390625 8.296875 
L 54.390625 0 
L 12.40625 0 
z
" id="DejaVuSans-49"/>
      <path d="M 40.578125 39.3125 
Q 47.65625 37.796875 51.625 33 
Q 55.609375 28.21875 55.609375 21.1875 
Q 55.609375 10.40625 48.1875 4.484375 
Q 40.765625 -1.421875 27.09375 -1.421875 
Q 22.515625 -1.421875 17.65625 -0.515625 
Q 12.796875 0.390625 7.625 2.203125 
L 7.625 11.71875 
Q 11.71875 9.328125 16.59375 8.109375 
Q 21.484375 6.890625 26.8125 6.890625 
Q 36.078125 6.890625 40.9375 10.546875 
Q 45.796875 14.203125 45.796875 21.1875 
Q 45.796875 27.640625 41.28125 31.265625 
Q 36.765625 34.90625 28.71875 34.90625 
L 20.21875 34.90625 
L 20.21875 43.015625 
L 29.109375 43.015625 
Q 36.375 43.015625 40.234375 45.921875 
Q 44.09375 48.828125 44.09375 54.296875 
Q 44.09375 59.90625 40.109375 62.90625 
Q 36.140625 65.921875 28.71875 65.921875 
Q 24.65625 65.921875 20.015625 65.03125 
Q 15.375 64.15625 9.8125 62.3125 
L 9.8125 71.09375 
Q 15.4375 72.65625 20.34375 73.4375 
Q 25.25 74.21875 29.59375 74.21875 
Q 40.828125 74.21875 47.359375 69.109375 
Q 53.90625 64.015625 53.90625 55.328125 
Q 53.90625 49.265625 50.4375 45.09375 
Q 46.96875 40.921875 40.578125 39.3125 
z
" id="DejaVuSans-51"/>
     </defs>
     <g transform="translate(441.591677 435.311579)scale(0.1 -0.1)">
      <use xlink:href="#DejaVuSans-49"/>
      <use x="63.623047" xlink:href="#DejaVuSans-46"/>
      <use x="95.410156" xlink:href="#DejaVuSans-51"/>
      <use x="159.033203" xlink:href="#DejaVuSans-53"/>
     </g>
    </g>
   </g>
   <g id="xtick_7">
    <g id="line2d_9">
     <path d="M 462.987198 416.144584 
L 458.459525 416.16534 
" style="fill:none;stroke:#000000;stroke-linecap:square;stroke-width:0.8;"/>
    </g>
    <g id="text_9">
     <!-- 1.40 -->
     <g transform="translate(441.081283 438.578191)scale(0.1 -0.1)">
      <use xlink:href="#DejaVuSans-49"/>
      <use x="63.623047" xlink:href="#DejaVuSans-46"/>
      <use x="95.410156" xlink:href="#DejaVuSans-52"/>
      <use x="159.033203" xlink:href="#DejaVuSans-48"/>
     </g>
    </g>
   </g>
   <g id="xtick_8">
    <g id="line2d_10">
     <path d="M 462.599775 419.306441 
L 458.01498 419.327723 
" style="fill:none;stroke:#000000;stroke-linecap:square;stroke-width:0.8;"/>
    </g>
    <g id="text_10">
     <!-- 1.45 -->
     <g transform="translate(440.558019 441.927177)scale(0.1 -0.1)">
      <use xlink:href="#DejaVuSans-49"/>
      <use x="63.623047" xlink:href="#DejaVuSans-46"/>
      <use x="95.410156" xlink:href="#DejaVuSans-52"/>
      <use x="159.033203" xlink:href="#DejaVuSans-53"/>
     </g>
    </g>
   </g>
   <g id="xtick_9">
    <g id="line2d_11">
     <path d="M 462.202458 422.549045 
L 457.559081 422.570875 
" style="fill:none;stroke:#000000;stroke-linecap:square;stroke-width:0.8;"/>
    </g>
    <g id="text_11">
     <!-- 1.50 -->
     <g transform="translate(440.021391 445.361691)scale(0.1 -0.1)">
      <use xlink:href="#DejaVuSans-49"/>
      <use x="63.623047" xlink:href="#DejaVuSans-46"/>
      <use x="95.410156" xlink:href="#DejaVuSans-53"/>
      <use x="159.033203" xlink:href="#DejaVuSans-48"/>
     </g>
    </g>
   </g>
   <g id="xtick_10">
    <g id="line2d_12">
     <path d="M 461.794862 425.87553 
L 457.091387 425.897928 
" style="fill:none;stroke:#000000;stroke-linecap:square;stroke-width:0.8;"/>
    </g>
    <g id="text_12">
     <!-- 1.55 -->
     <g transform="translate(439.470881 448.885054)scale(0.1 -0.1)">
      <use xlink:href="#DejaVuSans-49"/>
      <use x="63.623047" xlink:href="#DejaVuSans-46"/>
      <use x="95.410156" xlink:href="#DejaVuSans-53"/>
      <use x="159.033203" xlink:href="#DejaVuSans-53"/>
     </g>
    </g>
   </g>
   <g id="xtick_11">
    <g id="line2d_13">
     <path d="M 461.376585 429.289194 
L 456.611435 429.312183 
" style="fill:none;stroke:#000000;stroke-linecap:square;stroke-width:0.8;"/>
    </g>
    <g id="text_13">
     <!-- 1.60 -->
     <g transform="translate(438.905943 452.500756)scale(0.1 -0.1)">
      <use xlink:href="#DejaVuSans-49"/>
      <use x="63.623047" xlink:href="#DejaVuSans-46"/>
      <use x="95.410156" xlink:href="#DejaVuSans-54"/>
      <use x="159.033203" xlink:href="#DejaVuSans-48"/>
     </g>
    </g>
   </g>
   <g id="xtick_12">
    <g id="line2d_14">
     <path d="M 460.947201 432.793508 
L 456.118737 432.817112 
" style="fill:none;stroke:#000000;stroke-linecap:square;stroke-width:0.8;"/>
    </g>
    <g id="text_14">
     <!-- 1.65 -->
     <g transform="translate(438.326003 456.212478)scale(0.1 -0.1)">
      <use xlink:href="#DejaVuSans-49"/>
      <use x="63.623047" xlink:href="#DejaVuSans-46"/>
      <use x="95.410156" xlink:href="#DejaVuSans-54"/>
      <use x="159.033203" xlink:href="#DejaVuSans-53"/>
     </g>
    </g>
   </g>
   <g id="xtick_13">
    <g id="line2d_15">
     <path d="M 460.50626 436.392133 
L 455.612778 436.416376 
" style="fill:none;stroke:#000000;stroke-linecap:square;stroke-width:0.8;"/>
    </g>
    <g id="text_15">
     <!-- 1.70 -->
     <defs>
      <path d="M 8.203125 72.90625 
L 55.078125 72.90625 
L 55.078125 68.703125 
L 28.609375 0 
L 18.3125 0 
L 43.21875 64.59375 
L 8.203125 64.59375 
z
" id="DejaVuSans-55"/>
     </defs>
     <g transform="translate(437.730454 460.024094)scale(0.1 -0.1)">
      <use xlink:href="#DejaVuSans-49"/>
      <use x="63.623047" xlink:href="#DejaVuSans-46"/>
      <use x="95.410156" xlink:href="#DejaVuSans-55"/>
      <use x="159.033203" xlink:href="#DejaVuSans-48"/>
     </g>
    </g>
   </g>
  </g>
  <g id="axis3d_3">
   <g id="line2d_16">
    <path d="M 462.086541 411.417862 
L 461.758269 115.506403 
" style="fill:none;stroke:#000000;stroke-linecap:square;stroke-width:0.8;"/>
   </g>
   <g id="text_16">
    <!-- Z -->
    <defs>
     <path d="M 5.609375 72.90625 
L 62.890625 72.90625 
L 62.890625 65.375 
L 16.796875 8.296875 
L 64.015625 8.296875 
L 64.015625 0 
L 4.5 0 
L 4.5 7.515625 
L 50.59375 64.59375 
L 5.609375 64.59375 
z
" id="DejaVuSans-90"/>
    </defs>
    <g transform="translate(439.20398 265.479086)scale(0.1 -0.1)">
     <use xlink:href="#DejaVuSans-90"/>
    </g>
   </g>
   <g id="Line3DCollection_3">
    <path d="M 462.059332 386.891469 
L 646.572719 386.144298 
L 663.291398 410.292058 
" style="fill:none;stroke:#b0b0b0;stroke-width:0.8;"/>
    <path d="M 461.997993 331.599154 
L 646.629614 331.038115 
L 663.366386 349.171526 
" style="fill:none;stroke:#b0b0b0;stroke-width:0.8;"/>
    <path d="M 461.936575 276.235817 
L 646.686582 275.861388 
L 663.441479 287.964181 
" style="fill:none;stroke:#b0b0b0;stroke-width:0.8;"/>
    <path d="M 461.875079 220.801321 
L 646.743623 220.613981 
L 663.51668 226.669837 
" style="fill:none;stroke:#b0b0b0;stroke-width:0.8;"/>
    <path d="M 461.813503 165.295528 
L 646.800737 165.295758 
L 663.591987 165.288309 
" style="fill:none;stroke:#b0b0b0;stroke-width:0.8;"/>
   </g>
   <g id="xtick_14">
    <g id="line2d_17">
     <path d="M 463.540395 386.885471 
L 459.096967 386.903465 
" style="fill:none;stroke:#000000;stroke-linecap:square;stroke-width:0.8;"/>
    </g>
    <g id="text_17">
     <!-- −0.05 -->
     <defs>
      <path d="M 10.59375 35.5 
L 73.1875 35.5 
L 73.1875 27.203125 
L 10.59375 27.203125 
z
" id="DejaVuSans-8722"/>
     </defs>
     <g transform="translate(437.824805 393.453575)scale(0.1 -0.1)">
      <use xlink:href="#DejaVuSans-8722"/>
      <use x="83.789062" xlink:href="#DejaVuSans-48"/>
      <use x="147.412109" xlink:href="#DejaVuSans-46"/>
      <use x="179.199219" xlink:href="#DejaVuSans-48"/>
      <use x="242.822266" xlink:href="#DejaVuSans-53"/>
     </g>
    </g>
   </g>
   <g id="xtick_15">
    <g id="line2d_18">
     <path d="M 463.480008 331.594651 
L 459.033723 331.608162 
" style="fill:none;stroke:#000000;stroke-linecap:square;stroke-width:0.8;"/>
    </g>
    <g id="text_18">
     <!-- 0.00 -->
     <g transform="translate(441.947904 338.419427)scale(0.1 -0.1)">
      <use xlink:href="#DejaVuSans-48"/>
      <use x="63.623047" xlink:href="#DejaVuSans-46"/>
      <use x="95.410156" xlink:href="#DejaVuSans-48"/>
      <use x="159.033203" xlink:href="#DejaVuSans-48"/>
     </g>
    </g>
   </g>
   <g id="xtick_16">
    <g id="line2d_19">
     <path d="M 463.419544 276.232812 
L 458.970398 276.241829 
" style="fill:none;stroke:#000000;stroke-linecap:square;stroke-width:0.8;"/>
    </g>
    <g id="text_19">
     <!-- 0.05 -->
     <g transform="translate(441.881073 283.31492)scale(0.1 -0.1)">
      <use xlink:href="#DejaVuSans-48"/>
      <use x="63.623047" xlink:href="#DejaVuSans-46"/>
      <use x="95.410156" xlink:href="#DejaVuSans-48"/>
      <use x="159.033203" xlink:href="#DejaVuSans-53"/>
     </g>
    </g>
   </g>
   <g id="xtick_17">
    <g id="line2d_20">
     <path d="M 463.359002 220.799817 
L 458.906992 220.804329 
" style="fill:none;stroke:#000000;stroke-linecap:square;stroke-width:0.8;"/>
    </g>
    <g id="text_20">
     <!-- 0.10 -->
     <g transform="translate(441.814158 228.139917)scale(0.1 -0.1)">
      <use xlink:href="#DejaVuSans-48"/>
      <use x="63.623047" xlink:href="#DejaVuSans-46"/>
      <use x="95.410156" xlink:href="#DejaVuSans-49"/>
      <use x="159.033203" xlink:href="#DejaVuSans-48"/>
     </g>
    </g>
   </g>
   <g id="xtick_18">
    <g id="line2d_21">
     <path d="M 463.298382 165.29553 
L 458.843504 165.295524 
" style="fill:none;stroke:#000000;stroke-linecap:square;stroke-width:0.8;"/>
    </g>
    <g id="text_21">
     <!-- 0.15 -->
     <g transform="translate(441.747156 172.894285)scale(0.1 -0.1)">
      <use xlink:href="#DejaVuSans-48"/>
      <use x="63.623047" xlink:href="#DejaVuSans-46"/>
      <use x="95.410156" xlink:href="#DejaVuSans-49"/>
      <use x="159.033203" xlink:href="#DejaVuSans-53"/>
     </g>
    </g>
   </g>
  </g>
  <g id="axes_1">
   <g id="line2d_22">
    <path clip-path="url(#p2e32e7a745)" d="M 597.936592 308.578522 
L 609.077358 291.073009 
" style="fill:none;stroke:#ff0000;stroke-linecap:square;stroke-width:1.5;"/>
   </g>
   <g id="line2d_23">
    <path clip-path="url(#p2e32e7a745)" d="M 597.936592 308.578522 
L 609.143218 325.269363 
" style="fill:none;stroke:#008000;stroke-linecap:square;stroke-width:1.5;"/>
   </g>
   <g id="line2d_24">
    <path clip-path="url(#p2e32e7a745)" d="M 597.936592 308.578522 
L 600.750964 311.293 
" style="fill:none;stroke:#0000ff;stroke-linecap:square;stroke-width:1.5;"/>
   </g>
   <g id="line2d_25">
    <path clip-path="url(#p2e32e7a745)" d="M 608.593058 320.74515 
L 619.588457 303.209043 
" style="fill:none;stroke:#ff0000;stroke-linecap:square;stroke-width:1.5;"/>
   </g>
   <g id="line2d_26">
    <path clip-path="url(#p2e32e7a745)" d="M 608.593058 320.74515 
L 619.834089 337.230713 
" style="fill:none;stroke:#008000;stroke-linecap:square;stroke-width:1.5;"/>
   </g>
   <g id="line2d_27">
    <path clip-path="url(#p2e32e7a745)" d="M 608.593058 320.74515 
L 611.345887 323.333179 
" style="fill:none;stroke:#0000ff;stroke-linecap:square;stroke-width:1.5;"/>
   </g>
   <g id="line2d_28">
    <path clip-path="url(#p2e32e7a745)" d="M 607.784645 316.569364 
L 618.929385 299.511337 
" style="fill:none;stroke:#ff0000;stroke-linecap:square;stroke-width:1.5;"/>
   </g>
   <g id="line2d_29">
    <path clip-path="url(#p2e32e7a745)" d="M 607.784645 316.569364 
L 618.605562 333.219478 
" style="fill:none;stroke:#008000;stroke-linecap:square;stroke-width:1.5;"/>
   </g>
   <g id="line2d_30">
    <path clip-path="url(#p2e32e7a745)" d="M 607.784645 316.569364 
L 610.920425 319.625772 
" style="fill:none;stroke:#0000ff;stroke-linecap:square;stroke-width:1.5;"/>
   </g>
   <g id="line2d_31">
    <path clip-path="url(#p2e32e7a745)" d="M 602.559556 341.913482 
L 613.464277 324.694557 
" style="fill:none;stroke:#ff0000;stroke-linecap:square;stroke-width:1.5;"/>
   </g>
   <g id="line2d_32">
    <path clip-path="url(#p2e32e7a745)" d="M 602.559556 341.913482 
L 613.413226 358.11229 
" style="fill:none;stroke:#008000;stroke-linecap:square;stroke-width:1.5;"/>
   </g>
   <g id="line2d_33">
    <path clip-path="url(#p2e32e7a745)" d="M 602.559556 341.913482 
L 605.947997 345.341386 
" style="fill:none;stroke:#0000ff;stroke-linecap:square;stroke-width:1.5;"/>
   </g>
   <g id="line2d_34">
    <path clip-path="url(#p2e32e7a745)" d="M 625.409716 292.351334 
L 637.253121 276.613772 
" style="fill:none;stroke:#ff0000;stroke-linecap:square;stroke-width:1.5;"/>
   </g>
   <g id="line2d_35">
    <path clip-path="url(#p2e32e7a745)" d="M 625.409716 292.351334 
L 635.302117 309.758965 
" style="fill:none;stroke:#008000;stroke-linecap:square;stroke-width:1.5;"/>
   </g>
   <g id="line2d_36">
    <path clip-path="url(#p2e32e7a745)" d="M 625.409716 292.351334 
L 628.535028 296.786651 
" style="fill:none;stroke:#0000ff;stroke-linecap:square;stroke-width:1.5;"/>
   </g>
   <g id="line2d_37">
    <path clip-path="url(#p2e32e7a745)" d="M 633.125376 297.045275 
L 644.873735 281.490515 
" style="fill:none;stroke:#ff0000;stroke-linecap:square;stroke-width:1.5;"/>
   </g>
   <g id="line2d_38">
    <path clip-path="url(#p2e32e7a745)" d="M 633.125376 297.045275 
L 642.782713 314.145506 
" style="fill:none;stroke:#008000;stroke-linecap:square;stroke-width:1.5;"/>
   </g>
   <g id="line2d_39">
    <path clip-path="url(#p2e32e7a745)" d="M 633.125376 297.045275 
L 636.570818 302.05831 
" style="fill:none;stroke:#0000ff;stroke-linecap:square;stroke-width:1.5;"/>
   </g>
   <g id="line2d_40">
    <path clip-path="url(#p2e32e7a745)" d="M 608.940533 350.105375 
L 618.644387 331.644682 
" style="fill:none;stroke:#ff0000;stroke-linecap:square;stroke-width:1.5;"/>
   </g>
   <g id="line2d_41">
    <path clip-path="url(#p2e32e7a745)" d="M 608.940533 350.105375 
L 620.254963 364.497209 
" style="fill:none;stroke:#008000;stroke-linecap:square;stroke-width:1.5;"/>
   </g>
   <g id="line2d_42">
    <path clip-path="url(#p2e32e7a745)" d="M 608.940533 350.105375 
L 613.555943 353.561943 
" style="fill:none;stroke:#0000ff;stroke-linecap:square;stroke-width:1.5;"/>
   </g>
   <g id="line2d_43">
    <path clip-path="url(#p2e32e7a745)" d="M 608.825869 350.207239 
L 616.753366 330.195581 
" style="fill:none;stroke:#ff0000;stroke-linecap:square;stroke-width:1.5;"/>
   </g>
   <g id="line2d_44">
    <path clip-path="url(#p2e32e7a745)" d="M 608.825869 350.207239 
L 620.458631 361.704696 
" style="fill:none;stroke:#008000;stroke-linecap:square;stroke-width:1.5;"/>
   </g>
   <g id="line2d_45">
    <path clip-path="url(#p2e32e7a745)" d="M 608.825869 350.207239 
L 615.153952 354.08772 
" style="fill:none;stroke:#0000ff;stroke-linecap:square;stroke-width:1.5;"/>
   </g>
   <g id="line2d_46">
    <path clip-path="url(#p2e32e7a745)" d="M 628.386126 290.75996 
L 637.55763 271.957842 
" style="fill:none;stroke:#ff0000;stroke-linecap:square;stroke-width:1.5;"/>
   </g>
   <g id="line2d_47">
    <path clip-path="url(#p2e32e7a745)" d="M 628.386126 290.75996 
L 639.333068 303.76768 
" style="fill:none;stroke:#008000;stroke-linecap:square;stroke-width:1.5;"/>
   </g>
   <g id="line2d_48">
    <path clip-path="url(#p2e32e7a745)" d="M 628.386126 290.75996 
L 634.25049 295.825842 
" style="fill:none;stroke:#0000ff;stroke-linecap:square;stroke-width:1.5;"/>
   </g>
   <g id="line2d_49">
    <path clip-path="url(#p2e32e7a745)" d="M 553.893923 236.324719 
L 562.399676 216.392025 
" style="fill:none;stroke:#ff0000;stroke-linecap:square;stroke-width:1.5;"/>
   </g>
   <g id="line2d_50">
    <path clip-path="url(#p2e32e7a745)" d="M 553.893923 236.324719 
L 565.835154 248.579837 
" style="fill:none;stroke:#008000;stroke-linecap:square;stroke-width:1.5;"/>
   </g>
   <g id="line2d_51">
    <path clip-path="url(#p2e32e7a745)" d="M 553.893923 236.324719 
L 559.442405 240.510405 
" style="fill:none;stroke:#0000ff;stroke-linecap:square;stroke-width:1.5;"/>
   </g>
   <g id="line2d_52">
    <path clip-path="url(#p2e32e7a745)" d="M 508.904253 301.29539 
L 515.47829 279.826886 
" style="fill:none;stroke:#ff0000;stroke-linecap:square;stroke-width:1.5;"/>
   </g>
   <g id="line2d_53">
    <path clip-path="url(#p2e32e7a745)" d="M 508.904253 301.29539 
L 521.694252 311.038078 
" style="fill:none;stroke:#008000;stroke-linecap:square;stroke-width:1.5;"/>
   </g>
   <g id="line2d_54">
    <path clip-path="url(#p2e32e7a745)" d="M 508.904253 301.29539 
L 515.110261 303.952722 
" style="fill:none;stroke:#0000ff;stroke-linecap:square;stroke-width:1.5;"/>
   </g>
   <g id="line2d_55">
    <path clip-path="url(#p2e32e7a745)" d="M 512.781578 297.692892 
L 519.374892 276.558832 
" style="fill:none;stroke:#ff0000;stroke-linecap:square;stroke-width:1.5;"/>
   </g>
   <g id="line2d_56">
    <path clip-path="url(#p2e32e7a745)" d="M 512.781578 297.692892 
L 524.990085 306.918326 
" style="fill:none;stroke:#008000;stroke-linecap:square;stroke-width:1.5;"/>
   </g>
   <g id="line2d_57">
    <path clip-path="url(#p2e32e7a745)" d="M 512.781578 297.692892 
L 519.563845 301.625616 
" style="fill:none;stroke:#0000ff;stroke-linecap:square;stroke-width:1.5;"/>
   </g>
   <g id="line2d_58">
    <path clip-path="url(#p2e32e7a745)" d="M 545.497074 204.007723 
L 553.994465 184.492008 
" style="fill:none;stroke:#ff0000;stroke-linecap:square;stroke-width:1.5;"/>
   </g>
   <g id="line2d_59">
    <path clip-path="url(#p2e32e7a745)" d="M 545.497074 204.007723 
L 556.930074 215.487948 
" style="fill:none;stroke:#008000;stroke-linecap:square;stroke-width:1.5;"/>
   </g>
   <g id="line2d_60">
    <path clip-path="url(#p2e32e7a745)" d="M 545.497074 204.007723 
L 551.416424 209.876417 
" style="fill:none;stroke:#0000ff;stroke-linecap:square;stroke-width:1.5;"/>
   </g>
   <g id="line2d_61">
    <path clip-path="url(#p2e32e7a745)" d="M 534.518376 194.536667 
L 542.762678 175.301348 
" style="fill:none;stroke:#ff0000;stroke-linecap:square;stroke-width:1.5;"/>
   </g>
   <g id="line2d_62">
    <path clip-path="url(#p2e32e7a745)" d="M 534.518376 194.536667 
L 545.309479 205.011347 
" style="fill:none;stroke:#008000;stroke-linecap:square;stroke-width:1.5;"/>
   </g>
   <g id="line2d_63">
    <path clip-path="url(#p2e32e7a745)" d="M 534.518376 194.536667 
L 541.200434 201.381492 
" style="fill:none;stroke:#0000ff;stroke-linecap:square;stroke-width:1.5;"/>
   </g>
   <g id="line2d_64">
    <path clip-path="url(#p2e32e7a745)" d="M 473.154233 274.486501 
L 480.646048 254.711941 
" style="fill:none;stroke:#ff0000;stroke-linecap:square;stroke-width:1.5;"/>
   </g>
   <g id="line2d_65">
    <path clip-path="url(#p2e32e7a745)" d="M 473.154233 274.486501 
L 483.730676 283.747965 
" style="fill:none;stroke:#008000;stroke-linecap:square;stroke-width:1.5;"/>
   </g>
   <g id="line2d_66">
    <path clip-path="url(#p2e32e7a745)" d="M 473.154233 274.486501 
L 480.825168 281.042324 
" style="fill:none;stroke:#0000ff;stroke-linecap:square;stroke-width:1.5;"/>
   </g>
   <g id="line2d_67">
    <path clip-path="url(#p2e32e7a745)" d="M 547.177966 318.809101 
L 555.221721 299.499172 
" style="fill:none;stroke:#ff0000;stroke-linecap:square;stroke-width:1.5;"/>
   </g>
   <g id="line2d_68">
    <path clip-path="url(#p2e32e7a745)" d="M 547.177966 318.809101 
L 557.534199 328.698181 
" style="fill:none;stroke:#008000;stroke-linecap:square;stroke-width:1.5;"/>
   </g>
   <g id="line2d_69">
    <path clip-path="url(#p2e32e7a745)" d="M 547.177966 318.809101 
L 554.596055 325.910341 
" style="fill:none;stroke:#0000ff;stroke-linecap:square;stroke-width:1.5;"/>
   </g>
   <g id="line2d_70">
    <path clip-path="url(#p2e32e7a745)" d="M 568.714896 335.917767 
L 576.270913 316.461097 
" style="fill:none;stroke:#ff0000;stroke-linecap:square;stroke-width:1.5;"/>
   </g>
   <g id="line2d_71">
    <path clip-path="url(#p2e32e7a745)" d="M 568.714896 335.917767 
L 578.520276 344.736319 
" style="fill:none;stroke:#008000;stroke-linecap:square;stroke-width:1.5;"/>
   </g>
   <g id="line2d_72">
    <path clip-path="url(#p2e32e7a745)" d="M 568.714896 335.917767 
L 576.987463 343.190562 
" style="fill:none;stroke:#0000ff;stroke-linecap:square;stroke-width:1.5;"/>
   </g>
   <g id="line2d_73">
    <path clip-path="url(#p2e32e7a745)" d="M 523.699334 316.028415 
L 530.433726 296.144169 
" style="fill:none;stroke:#ff0000;stroke-linecap:square;stroke-width:1.5;"/>
   </g>
   <g id="line2d_74">
    <path clip-path="url(#p2e32e7a745)" d="M 523.699334 316.028415 
L 532.767592 323.201676 
" style="fill:none;stroke:#008000;stroke-linecap:square;stroke-width:1.5;"/>
   </g>
   <g id="line2d_75">
    <path clip-path="url(#p2e32e7a745)" d="M 523.699334 316.028415 
L 533.17523 323.258346 
" style="fill:none;stroke:#0000ff;stroke-linecap:square;stroke-width:1.5;"/>
   </g>
   <g id="line2d_76">
    <path clip-path="url(#p2e32e7a745)" d="M 545.96935 313.876515 
L 553.28702 293.9206 
" style="fill:none;stroke:#ff0000;stroke-linecap:square;stroke-width:1.5;"/>
   </g>
   <g id="line2d_77">
    <path clip-path="url(#p2e32e7a745)" d="M 545.96935 313.876515 
L 555.249444 322.295647 
" style="fill:none;stroke:#008000;stroke-linecap:square;stroke-width:1.5;"/>
   </g>
   <g id="line2d_78">
    <path clip-path="url(#p2e32e7a745)" d="M 545.96935 313.876515 
L 555.307749 321.106975 
" style="fill:none;stroke:#0000ff;stroke-linecap:square;stroke-width:1.5;"/>
   </g>
   <g id="line2d_79">
    <path clip-path="url(#p2e32e7a745)" d="M 571.643452 338.023591 
L 579.209357 318.499569 
" style="fill:none;stroke:#ff0000;stroke-linecap:square;stroke-width:1.5;"/>
   </g>
   <g id="line2d_80">
    <path clip-path="url(#p2e32e7a745)" d="M 571.643452 338.023591 
L 580.442791 345.744939 
" style="fill:none;stroke:#008000;stroke-linecap:square;stroke-width:1.5;"/>
   </g>
   <g id="line2d_81">
    <path clip-path="url(#p2e32e7a745)" d="M 571.643452 338.023591 
L 581.03344 346.464401 
" style="fill:none;stroke:#0000ff;stroke-linecap:square;stroke-width:1.5;"/>
   </g>
   <g id="line2d_82">
    <path clip-path="url(#p2e32e7a745)" d="M 582.958693 235.818254 
L 591.75815 217.226696 
" style="fill:none;stroke:#ff0000;stroke-linecap:square;stroke-width:1.5;"/>
   </g>
   <g id="line2d_83">
    <path clip-path="url(#p2e32e7a745)" d="M 582.958693 235.818254 
L 591.703891 246.051233 
" style="fill:none;stroke:#008000;stroke-linecap:square;stroke-width:1.5;"/>
   </g>
   <g id="line2d_84">
    <path clip-path="url(#p2e32e7a745)" d="M 582.958693 235.818254 
L 591.546567 244.40671 
" style="fill:none;stroke:#0000ff;stroke-linecap:square;stroke-width:1.5;"/>
   </g>
   <g id="line2d_85">
    <path clip-path="url(#p2e32e7a745)" d="M 527.983297 185.047837 
L 536.470718 166.526004 
" style="fill:none;stroke:#ff0000;stroke-linecap:square;stroke-width:1.5;"/>
   </g>
   <g id="line2d_86">
    <path clip-path="url(#p2e32e7a745)" d="M 527.983297 185.047837 
L 536.031098 195.183147 
" style="fill:none;stroke:#008000;stroke-linecap:square;stroke-width:1.5;"/>
   </g>
   <g id="line2d_87">
    <path clip-path="url(#p2e32e7a745)" d="M 527.983297 185.047837 
L 537.238348 193.214336 
" style="fill:none;stroke:#0000ff;stroke-linecap:square;stroke-width:1.5;"/>
   </g>
   <g id="line2d_88">
    <path clip-path="url(#p2e32e7a745)" d="M 587.774303 229.908838 
L 596.932182 212.123297 
" style="fill:none;stroke:#ff0000;stroke-linecap:square;stroke-width:1.5;"/>
   </g>
   <g id="line2d_89">
    <path clip-path="url(#p2e32e7a745)" d="M 587.774303 229.908838 
L 595.345053 239.572339 
" style="fill:none;stroke:#008000;stroke-linecap:square;stroke-width:1.5;"/>
   </g>
   <g id="line2d_90">
    <path clip-path="url(#p2e32e7a745)" d="M 587.774303 229.908838 
L 596.718175 239.888617 
" style="fill:none;stroke:#0000ff;stroke-linecap:square;stroke-width:1.5;"/>
   </g>
   <g id="line2d_91">
    <path clip-path="url(#p2e32e7a745)" d="M 553.876989 208.423414 
L 562.527149 190.269844 
" style="fill:none;stroke:#ff0000;stroke-linecap:square;stroke-width:1.5;"/>
   </g>
   <g id="line2d_92">
    <path clip-path="url(#p2e32e7a745)" d="M 553.876989 208.423414 
L 561.346423 217.978525 
" style="fill:none;stroke:#008000;stroke-linecap:square;stroke-width:1.5;"/>
   </g>
   <g id="line2d_93">
    <path clip-path="url(#p2e32e7a745)" d="M 553.876989 208.423414 
L 563.258831 217.522502 
" style="fill:none;stroke:#0000ff;stroke-linecap:square;stroke-width:1.5;"/>
   </g>
   <g id="line2d_94">
    <path clip-path="url(#p2e32e7a745)" d="M 553.669746 388.313249 
L 558.894699 367.181296 
" style="fill:none;stroke:#ff0000;stroke-linecap:square;stroke-width:1.5;"/>
   </g>
   <g id="line2d_95">
    <path clip-path="url(#p2e32e7a745)" d="M 553.669746 388.313249 
L 563.409996 395.232645 
" style="fill:none;stroke:#008000;stroke-linecap:square;stroke-width:1.5;"/>
   </g>
   <g id="line2d_96">
    <path clip-path="url(#p2e32e7a745)" d="M 553.669746 388.313249 
L 563.702812 392.551291 
" style="fill:none;stroke:#0000ff;stroke-linecap:square;stroke-width:1.5;"/>
   </g>
   <g id="line2d_97">
    <path clip-path="url(#p2e32e7a745)" d="M 538.394427 390.161123 
L 543.93883 369.380843 
" style="fill:none;stroke:#ff0000;stroke-linecap:square;stroke-width:1.5;"/>
   </g>
   <g id="line2d_98">
    <path clip-path="url(#p2e32e7a745)" d="M 538.394427 390.161123 
L 547.262927 397.519998 
" style="fill:none;stroke:#008000;stroke-linecap:square;stroke-width:1.5;"/>
   </g>
   <g id="line2d_99">
    <path clip-path="url(#p2e32e7a745)" d="M 538.394427 390.161123 
L 548.949391 394.842452 
" style="fill:none;stroke:#0000ff;stroke-linecap:square;stroke-width:1.5;"/>
   </g>
   <g id="line2d_100">
    <path clip-path="url(#p2e32e7a745)" d="M 614.161684 195.056305 
L 624.009924 178.135168 
" style="fill:none;stroke:#ff0000;stroke-linecap:square;stroke-width:1.5;"/>
   </g>
   <g id="line2d_101">
    <path clip-path="url(#p2e32e7a745)" d="M 614.161684 195.056305 
L 621.060679 206.858359 
" style="fill:none;stroke:#008000;stroke-linecap:square;stroke-width:1.5;"/>
   </g>
   <g id="line2d_102">
    <path clip-path="url(#p2e32e7a745)" d="M 614.161684 195.056305 
L 623.053605 204.567837 
" style="fill:none;stroke:#0000ff;stroke-linecap:square;stroke-width:1.5;"/>
   </g>
   <g id="line2d_103">
    <path clip-path="url(#p2e32e7a745)" d="M 561.090221 151.787097 
L 570.029544 134.006279 
" style="fill:none;stroke:#ff0000;stroke-linecap:square;stroke-width:1.5;"/>
   </g>
   <g id="line2d_104">
    <path clip-path="url(#p2e32e7a745)" d="M 561.090221 151.787097 
L 568.337531 162.531335 
" style="fill:none;stroke:#008000;stroke-linecap:square;stroke-width:1.5;"/>
   </g>
   <g id="line2d_105">
    <path clip-path="url(#p2e32e7a745)" d="M 561.090221 151.787097 
L 570.420573 160.450891 
" style="fill:none;stroke:#0000ff;stroke-linecap:square;stroke-width:1.5;"/>
   </g>
   <g id="Path3DCollection_1">
    <defs>
     <path d="M 0 1.118034 
C 0.296506 1.118034 0.580908 1.000231 0.790569 0.790569 
C 1.000231 0.580908 1.118034 0.296506 1.118034 0 
C 1.118034 -0.296506 1.000231 -0.580908 0.790569 -0.790569 
C 0.580908 -1.000231 0.296506 -1.118034 0 -1.118034 
C -0.296506 -1.118034 -0.580908 -1.000231 -0.790569 -0.790569 
C -1.000231 -0.580908 -1.118034 -0.296506 -1.118034 0 
C -1.118034 0.296506 -1.000231 0.580908 -0.790569 0.790569 
C -0.580908 1.000231 -0.296506 1.118034 0 1.118034 
z
" id="C0_0_7ed9523b68"/>
    </defs>
    <g clip-path="url(#p2e32e7a745)">
     <use style="fill:#ff0000;stroke:#ff0000;" x="597.936592" xlink:href="#C0_0_7ed9523b68" y="308.578522"/>
    </g>
    <g clip-path="url(#p2e32e7a745)">
     <use style="fill:#ff0000;fill-opacity:0.953931;stroke:#ff0000;stroke-opacity:0.953931;" x="608.593058" xlink:href="#C0_0_7ed9523b68" y="320.74515"/>
    </g>
    <g clip-path="url(#p2e32e7a745)">
     <use style="fill:#ff0000;fill-opacity:0.891405;stroke:#ff0000;stroke-opacity:0.891405;" x="607.784645" xlink:href="#C0_0_7ed9523b68" y="316.569364"/>
    </g>
    <g clip-path="url(#p2e32e7a745)">
     <use style="fill:#ff0000;fill-opacity:0.841407;stroke:#ff0000;stroke-opacity:0.841407;" x="602.559556" xlink:href="#C0_0_7ed9523b68" y="341.913482"/>
    </g>
    <g clip-path="url(#p2e32e7a745)">
     <use style="fill:#ff0000;fill-opacity:0.837507;stroke:#ff0000;stroke-opacity:0.837507;" x="625.409716" xlink:href="#C0_0_7ed9523b68" y="292.351334"/>
    </g>
    <g clip-path="url(#p2e32e7a745)">
     <use style="fill:#ff0000;fill-opacity:0.756822;stroke:#ff0000;stroke-opacity:0.756822;" x="633.125376" xlink:href="#C0_0_7ed9523b68" y="297.045275"/>
    </g>
    <g clip-path="url(#p2e32e7a745)">
     <use style="fill:#ff0000;fill-opacity:0.760631;stroke:#ff0000;stroke-opacity:0.760631;" x="608.940533" xlink:href="#C0_0_7ed9523b68" y="350.105375"/>
    </g>
    <g clip-path="url(#p2e32e7a745)">
     <use style="fill:#ff0000;fill-opacity:0.669833;stroke:#ff0000;stroke-opacity:0.669833;" x="608.825869" xlink:href="#C0_0_7ed9523b68" y="350.207239"/>
    </g>
    <g clip-path="url(#p2e32e7a745)">
     <use style="fill:#ff0000;fill-opacity:0.672971;stroke:#ff0000;stroke-opacity:0.672971;" x="628.386126" xlink:href="#C0_0_7ed9523b68" y="290.75996"/>
    </g>
    <g clip-path="url(#p2e32e7a745)">
     <use style="fill:#ff0000;fill-opacity:0.795148;stroke:#ff0000;stroke-opacity:0.795148;" x="553.893923" xlink:href="#C0_0_7ed9523b68" y="236.324719"/>
    </g>
    <g clip-path="url(#p2e32e7a745)">
     <use style="fill:#ff0000;fill-opacity:0.7828;stroke:#ff0000;stroke-opacity:0.7828;" x="508.904253" xlink:href="#C0_0_7ed9523b68" y="301.29539"/>
    </g>
    <g clip-path="url(#p2e32e7a745)">
     <use style="fill:#ff0000;fill-opacity:0.667049;stroke:#ff0000;stroke-opacity:0.667049;" x="512.781578" xlink:href="#C0_0_7ed9523b68" y="297.692892"/>
    </g>
    <g clip-path="url(#p2e32e7a745)">
     <use style="fill:#ff0000;fill-opacity:0.661222;stroke:#ff0000;stroke-opacity:0.661222;" x="545.497074" xlink:href="#C0_0_7ed9523b68" y="204.007723"/>
    </g>
    <g clip-path="url(#p2e32e7a745)">
     <use style="fill:#ff0000;fill-opacity:0.505566;stroke:#ff0000;stroke-opacity:0.505566;" x="534.518376" xlink:href="#C0_0_7ed9523b68" y="194.536667"/>
    </g>
    <g clip-path="url(#p2e32e7a745)">
     <use style="fill:#ff0000;fill-opacity:0.459006;stroke:#ff0000;stroke-opacity:0.459006;" x="473.154233" xlink:href="#C0_0_7ed9523b68" y="274.486501"/>
    </g>
    <g clip-path="url(#p2e32e7a745)">
     <use style="fill:#ff0000;fill-opacity:0.470852;stroke:#ff0000;stroke-opacity:0.470852;" x="547.177966" xlink:href="#C0_0_7ed9523b68" y="318.809101"/>
    </g>
    <g clip-path="url(#p2e32e7a745)">
     <use style="fill:#ff0000;fill-opacity:0.379315;stroke:#ff0000;stroke-opacity:0.379315;" x="568.714896" xlink:href="#C0_0_7ed9523b68" y="335.917767"/>
    </g>
    <g clip-path="url(#p2e32e7a745)">
     <use style="fill:#ff0000;fill-opacity:0.3;stroke:#ff0000;stroke-opacity:0.3;" x="523.699334" xlink:href="#C0_0_7ed9523b68" y="316.028415"/>
    </g>
    <g clip-path="url(#p2e32e7a745)">
     <use style="fill:#ff0000;fill-opacity:0.472162;stroke:#ff0000;stroke-opacity:0.472162;" x="545.96935" xlink:href="#C0_0_7ed9523b68" y="313.876515"/>
    </g>
    <g clip-path="url(#p2e32e7a745)">
     <use style="fill:#ff0000;fill-opacity:0.402872;stroke:#ff0000;stroke-opacity:0.402872;" x="571.643452" xlink:href="#C0_0_7ed9523b68" y="338.023591"/>
    </g>
    <g clip-path="url(#p2e32e7a745)">
     <use style="fill:#ff0000;fill-opacity:0.488513;stroke:#ff0000;stroke-opacity:0.488513;" x="582.958693" xlink:href="#C0_0_7ed9523b68" y="235.818254"/>
    </g>
    <g clip-path="url(#p2e32e7a745)">
     <use style="fill:#ff0000;fill-opacity:0.3928;stroke:#ff0000;stroke-opacity:0.3928;" x="527.983297" xlink:href="#C0_0_7ed9523b68" y="185.047837"/>
    </g>
    <g clip-path="url(#p2e32e7a745)">
     <use style="fill:#ff0000;fill-opacity:0.374591;stroke:#ff0000;stroke-opacity:0.374591;" x="587.774303" xlink:href="#C0_0_7ed9523b68" y="229.908838"/>
    </g>
    <g clip-path="url(#p2e32e7a745)">
     <use style="fill:#ff0000;fill-opacity:0.327133;stroke:#ff0000;stroke-opacity:0.327133;" x="553.876989" xlink:href="#C0_0_7ed9523b68" y="208.423414"/>
    </g>
    <g clip-path="url(#p2e32e7a745)">
     <use style="fill:#ff0000;fill-opacity:0.401446;stroke:#ff0000;stroke-opacity:0.401446;" x="553.669746" xlink:href="#C0_0_7ed9523b68" y="388.313249"/>
    </g>
    <g clip-path="url(#p2e32e7a745)">
     <use style="fill:#ff0000;fill-opacity:0.365271;stroke:#ff0000;stroke-opacity:0.365271;" x="538.394427" xlink:href="#C0_0_7ed9523b68" y="390.161123"/>
    </g>
    <g clip-path="url(#p2e32e7a745)">
     <use style="fill:#ff0000;fill-opacity:0.420193;stroke:#ff0000;stroke-opacity:0.420193;" x="614.161684" xlink:href="#C0_0_7ed9523b68" y="195.056305"/>
    </g>
    <g clip-path="url(#p2e32e7a745)">
     <use style="fill:#ff0000;fill-opacity:0.343151;stroke:#ff0000;stroke-opacity:0.343151;" x="561.090221" xlink:href="#C0_0_7ed9523b68" y="151.787097"/>
    </g>
   </g>
   <g id="text_22">
    <!-- Stream_181205_153706.txt -->
    <defs>
     <path d="M 53.515625 70.515625 
L 53.515625 60.890625 
Q 47.90625 63.578125 42.921875 64.890625 
Q 37.9375 66.21875 33.296875 66.21875 
Q 25.25 66.21875 20.875 63.09375 
Q 16.5 59.96875 16.5 54.203125 
Q 16.5 49.359375 19.40625 46.890625 
Q 22.3125 44.4375 30.421875 42.921875 
L 36.375 41.703125 
Q 47.40625 39.59375 52.65625 34.296875 
Q 57.90625 29 57.90625 20.125 
Q 57.90625 9.515625 50.796875 4.046875 
Q 43.703125 -1.421875 29.984375 -1.421875 
Q 24.8125 -1.421875 18.96875 -0.25 
Q 13.140625 0.921875 6.890625 3.21875 
L 6.890625 13.375 
Q 12.890625 10.015625 18.65625 8.296875 
Q 24.421875 6.59375 29.984375 6.59375 
Q 38.421875 6.59375 43.015625 9.90625 
Q 47.609375 13.234375 47.609375 19.390625 
Q 47.609375 24.75 44.3125 27.78125 
Q 41.015625 30.8125 33.5 32.328125 
L 27.484375 33.5 
Q 16.453125 35.6875 11.515625 40.375 
Q 6.59375 45.0625 6.59375 53.421875 
Q 6.59375 63.09375 13.40625 68.65625 
Q 20.21875 74.21875 32.171875 74.21875 
Q 37.3125 74.21875 42.625 73.28125 
Q 47.953125 72.359375 53.515625 70.515625 
z
" id="DejaVuSans-83"/>
     <path d="M 18.3125 70.21875 
L 18.3125 54.6875 
L 36.8125 54.6875 
L 36.8125 47.703125 
L 18.3125 47.703125 
L 18.3125 18.015625 
Q 18.3125 11.328125 20.140625 9.421875 
Q 21.96875 7.515625 27.59375 7.515625 
L 36.8125 7.515625 
L 36.8125 0 
L 27.59375 0 
Q 17.1875 0 13.234375 3.875 
Q 9.28125 7.765625 9.28125 18.015625 
L 9.28125 47.703125 
L 2.6875 47.703125 
L 2.6875 54.6875 
L 9.28125 54.6875 
L 9.28125 70.21875 
z
" id="DejaVuSans-116"/>
     <path d="M 41.109375 46.296875 
Q 39.59375 47.171875 37.8125 47.578125 
Q 36.03125 48 33.890625 48 
Q 26.265625 48 22.1875 43.046875 
Q 18.109375 38.09375 18.109375 28.8125 
L 18.109375 0 
L 9.078125 0 
L 9.078125 54.6875 
L 18.109375 54.6875 
L 18.109375 46.1875 
Q 20.953125 51.171875 25.484375 53.578125 
Q 30.03125 56 36.53125 56 
Q 37.453125 56 38.578125 55.875 
Q 39.703125 55.765625 41.0625 55.515625 
z
" id="DejaVuSans-114"/>
     <path d="M 56.203125 29.59375 
L 56.203125 25.203125 
L 14.890625 25.203125 
Q 15.484375 15.921875 20.484375 11.0625 
Q 25.484375 6.203125 34.421875 6.203125 
Q 39.59375 6.203125 44.453125 7.46875 
Q 49.3125 8.734375 54.109375 11.28125 
L 54.109375 2.78125 
Q 49.265625 0.734375 44.1875 -0.34375 
Q 39.109375 -1.421875 33.890625 -1.421875 
Q 20.796875 -1.421875 13.15625 6.1875 
Q 5.515625 13.8125 5.515625 26.8125 
Q 5.515625 40.234375 12.765625 48.109375 
Q 20.015625 56 32.328125 56 
Q 43.359375 56 49.78125 48.890625 
Q 56.203125 41.796875 56.203125 29.59375 
z
M 47.21875 32.234375 
Q 47.125 39.59375 43.09375 43.984375 
Q 39.0625 48.390625 32.421875 48.390625 
Q 24.90625 48.390625 20.390625 44.140625 
Q 15.875 39.890625 15.1875 32.171875 
z
" id="DejaVuSans-101"/>
     <path d="M 34.28125 27.484375 
Q 23.390625 27.484375 19.1875 25 
Q 14.984375 22.515625 14.984375 16.5 
Q 14.984375 11.71875 18.140625 8.90625 
Q 21.296875 6.109375 26.703125 6.109375 
Q 34.1875 6.109375 38.703125 11.40625 
Q 43.21875 16.703125 43.21875 25.484375 
L 43.21875 27.484375 
z
M 52.203125 31.203125 
L 52.203125 0 
L 43.21875 0 
L 43.21875 8.296875 
Q 40.140625 3.328125 35.546875 0.953125 
Q 30.953125 -1.421875 24.3125 -1.421875 
Q 15.921875 -1.421875 10.953125 3.296875 
Q 6 8.015625 6 15.921875 
Q 6 25.140625 12.171875 29.828125 
Q 18.359375 34.515625 30.609375 34.515625 
L 43.21875 34.515625 
L 43.21875 35.40625 
Q 43.21875 41.609375 39.140625 45 
Q 35.0625 48.390625 27.6875 48.390625 
Q 23 48.390625 18.546875 47.265625 
Q 14.109375 46.140625 10.015625 43.890625 
L 10.015625 52.203125 
Q 14.9375 54.109375 19.578125 55.046875 
Q 24.21875 56 28.609375 56 
Q 40.484375 56 46.34375 49.84375 
Q 52.203125 43.703125 52.203125 31.203125 
z
" id="DejaVuSans-97"/>
     <path d="M 52 44.1875 
Q 55.375 50.25 60.0625 53.125 
Q 64.75 56 71.09375 56 
Q 79.640625 56 84.28125 50.015625 
Q 88.921875 44.046875 88.921875 33.015625 
L 88.921875 0 
L 79.890625 0 
L 79.890625 32.71875 
Q 79.890625 40.578125 77.09375 44.375 
Q 74.3125 48.1875 68.609375 48.1875 
Q 61.625 48.1875 57.5625 43.546875 
Q 53.515625 38.921875 53.515625 30.90625 
L 53.515625 0 
L 44.484375 0 
L 44.484375 32.71875 
Q 44.484375 40.625 41.703125 44.40625 
Q 38.921875 48.1875 33.109375 48.1875 
Q 26.21875 48.1875 22.15625 43.53125 
Q 18.109375 38.875 18.109375 30.90625 
L 18.109375 0 
L 9.078125 0 
L 9.078125 54.6875 
L 18.109375 54.6875 
L 18.109375 46.1875 
Q 21.1875 51.21875 25.484375 53.609375 
Q 29.78125 56 35.6875 56 
Q 41.65625 56 45.828125 52.96875 
Q 50 49.953125 52 44.1875 
z
" id="DejaVuSans-109"/>
     <path d="M 50.984375 -16.609375 
L 50.984375 -23.578125 
L -0.984375 -23.578125 
L -0.984375 -16.609375 
z
" id="DejaVuSans-95"/>
     <path d="M 31.78125 34.625 
Q 24.75 34.625 20.71875 30.859375 
Q 16.703125 27.09375 16.703125 20.515625 
Q 16.703125 13.921875 20.71875 10.15625 
Q 24.75 6.390625 31.78125 6.390625 
Q 38.8125 6.390625 42.859375 10.171875 
Q 46.921875 13.96875 46.921875 20.515625 
Q 46.921875 27.09375 42.890625 30.859375 
Q 38.875 34.625 31.78125 34.625 
z
M 21.921875 38.8125 
Q 15.578125 40.375 12.03125 44.71875 
Q 8.5 49.078125 8.5 55.328125 
Q 8.5 64.0625 14.71875 69.140625 
Q 20.953125 74.21875 31.78125 74.21875 
Q 42.671875 74.21875 48.875 69.140625 
Q 55.078125 64.0625 55.078125 55.328125 
Q 55.078125 49.078125 51.53125 44.71875 
Q 48 40.375 41.703125 38.8125 
Q 48.828125 37.15625 52.796875 32.3125 
Q 56.78125 27.484375 56.78125 20.515625 
Q 56.78125 9.90625 50.3125 4.234375 
Q 43.84375 -1.421875 31.78125 -1.421875 
Q 19.734375 -1.421875 13.25 4.234375 
Q 6.78125 9.90625 6.78125 20.515625 
Q 6.78125 27.484375 10.78125 32.3125 
Q 14.796875 37.15625 21.921875 38.8125 
z
M 18.3125 54.390625 
Q 18.3125 48.734375 21.84375 45.5625 
Q 25.390625 42.390625 31.78125 42.390625 
Q 38.140625 42.390625 41.71875 45.5625 
Q 45.3125 48.734375 45.3125 54.390625 
Q 45.3125 60.0625 41.71875 63.234375 
Q 38.140625 66.40625 31.78125 66.40625 
Q 25.390625 66.40625 21.84375 63.234375 
Q 18.3125 60.0625 18.3125 54.390625 
z
" id="DejaVuSans-56"/>
     <path d="M 19.1875 8.296875 
L 53.609375 8.296875 
L 53.609375 0 
L 7.328125 0 
L 7.328125 8.296875 
Q 12.9375 14.109375 22.625 23.890625 
Q 32.328125 33.6875 34.8125 36.53125 
Q 39.546875 41.84375 41.421875 45.53125 
Q 43.3125 49.21875 43.3125 52.78125 
Q 43.3125 58.59375 39.234375 62.25 
Q 35.15625 65.921875 28.609375 65.921875 
Q 23.96875 65.921875 18.8125 64.3125 
Q 13.671875 62.703125 7.8125 59.421875 
L 7.8125 69.390625 
Q 13.765625 71.78125 18.9375 73 
Q 24.125 74.21875 28.421875 74.21875 
Q 39.75 74.21875 46.484375 68.546875 
Q 53.21875 62.890625 53.21875 53.421875 
Q 53.21875 48.921875 51.53125 44.890625 
Q 49.859375 40.875 45.40625 35.40625 
Q 44.1875 33.984375 37.640625 27.21875 
Q 31.109375 20.453125 19.1875 8.296875 
z
" id="DejaVuSans-50"/>
     <path d="M 54.890625 54.6875 
L 35.109375 28.078125 
L 55.90625 0 
L 45.3125 0 
L 29.390625 21.484375 
L 13.484375 0 
L 2.875 0 
L 24.125 28.609375 
L 4.6875 54.6875 
L 15.28125 54.6875 
L 29.78125 35.203125 
L 44.28125 54.6875 
z
" id="DejaVuSans-120"/>
    </defs>
    <g transform="translate(469.148438 38.1792)scale(0.12 -0.12)">
     <use xlink:href="#DejaVuSans-83"/>
     <use x="63.476562" xlink:href="#DejaVuSans-116"/>
     <use x="102.685547" xlink:href="#DejaVuSans-114"/>
     <use x="143.767578" xlink:href="#DejaVuSans-101"/>
     <use x="205.291016" xlink:href="#DejaVuSans-97"/>
     <use x="266.570312" xlink:href="#DejaVuSans-109"/>
     <use x="363.982422" xlink:href="#DejaVuSans-95"/>
     <use x="413.982422" xlink:href="#DejaVuSans-49"/>
     <use x="477.605469" xlink:href="#DejaVuSans-56"/>
     <use x="541.228516" xlink:href="#DejaVuSans-49"/>
     <use x="604.851562" xlink:href="#DejaVuSans-50"/>
     <use x="668.474609" xlink:href="#DejaVuSans-48"/>
     <use x="732.097656" xlink:href="#DejaVuSans-53"/>
     <use x="795.720703" xlink:href="#DejaVuSans-95"/>
     <use x="845.720703" xlink:href="#DejaVuSans-49"/>
     <use x="909.34375" xlink:href="#DejaVuSans-53"/>
     <use x="972.966797" xlink:href="#DejaVuSans-51"/>
     <use x="1036.589844" xlink:href="#DejaVuSans-55"/>
     <use x="1100.212891" xlink:href="#DejaVuSans-48"/>
     <use x="1163.835938" xlink:href="#DejaVuSans-54"/>
     <use x="1227.458984" xlink:href="#DejaVuSans-46"/>
     <use x="1259.246094" xlink:href="#DejaVuSans-116"/>
     <use x="1298.455078" xlink:href="#DejaVuSans-120"/>
     <use x="1357.634766" xlink:href="#DejaVuSans-116"/>
    </g>
   </g>
   <g id="Path3DCollection_2">
    <defs>
     <path d="M 0 -5 
L -1.12257 -1.545085 
L -4.755283 -1.545085 
L -1.816356 0.59017 
L -2.938926 4.045085 
L -0 1.90983 
L 2.938926 4.045085 
L 1.816356 0.59017 
L 4.755283 -1.545085 
L 1.12257 -1.545085 
z
" id="m6264507c36" style="stroke:#ff0000;"/>
    </defs>
    <g clip-path="url(#p2e32e7a745)">
     <use style="fill:#ff0000;stroke:#ff0000;" x="597.936592" xlink:href="#m6264507c36" y="308.578522"/>
    </g>
   </g>
  </g>
 </g>
 <defs>
  <clipPath id="p2e32e7a745">
   <rect height="552.24" width="345.416182" x="380.251909" y="0"/>
  </clipPath>
 </defs>
</svg>
