<?xml version="1.0" encoding="utf-8" standalone="no"?>
<!DOCTYPE svg PUBLIC "-//W3C//DTD SVG 1.1//EN"
  "http://www.w3.org/Graphics/SVG/1.1/DTD/svg11.dtd">
<!-- Created with matplotlib (https://matplotlib.org/) -->
<svg height="552.24pt" version="1.1" viewBox="0 0 1105.92 552.24" width="1105.92pt" xmlns="http://www.w3.org/2000/svg" xmlns:xlink="http://www.w3.org/1999/xlink">
 <defs>
  <style type="text/css">
*{stroke-linecap:butt;stroke-linejoin:round;}
  </style>
 </defs>
 <g id="figure_1">
  <g id="patch_1">
   <path d="M 0 552.24 
L 1105.92 552.24 
L 1105.92 0 
L 0 0 
z
" style="fill:#ffffff;"/>
  </g>
  <g id="patch_2">
   <path d="M 380.251909 552.24 
L 725.668091 552.24 
L 725.668091 0 
L 380.251909 0 
z
" style="fill:#ffffff;"/>
  </g>
  <g id="pane3d_1">
   <g id="patch_3">
    <path d="M 428.043091 251.091547 
L 574.278175 71.711785 
L 576.095589 30.097234 
L 413.840264 228.965469 
" style="fill:#f2f2f2;opacity:0.5;stroke:#f2f2f2;stroke-linejoin:miter;"/>
   </g>
  </g>
  <g id="pane3d_2">
   <g id="patch_4">
    <path d="M 574.278175 71.711785 
L 687.3556 304.468013 
L 701.591541 288.17219 
L 576.095589 30.097234 
" style="fill:#e6e6e6;opacity:0.5;stroke:#e6e6e6;stroke-linejoin:miter;"/>
   </g>
  </g>
  <g id="pane3d_3">
   <g id="patch_5">
    <path d="M 428.043091 251.091547 
L 540.834276 485.589485 
L 687.3556 304.468013 
L 574.278175 71.711785 
" style="fill:#ececec;opacity:0.5;stroke:#ececec;stroke-linejoin:miter;"/>
   </g>
  </g>
  <g id="axis3d_1">
   <g id="line2d_1">
    <path d="M 428.043091 251.091547 
L 540.834276 485.589485 
" style="fill:none;stroke:#000000;stroke-linecap:square;stroke-width:0.8;"/>
   </g>
   <g id="text_1">
    <!-- X -->
    <defs>
     <path d="M 6.296875 72.90625 
L 16.890625 72.90625 
L 35.015625 45.796875 
L 53.21875 72.90625 
L 63.8125 72.90625 
L 40.375 37.890625 
L 65.375 0 
L 54.78125 0 
L 34.28125 31 
L 13.625 0 
L 2.984375 0 
L 29 38.921875 
z
" id="DejaVuSans-88"/>
    </defs>
    <g transform="translate(466.0914 390.859604)scale(0.1 -0.1)">
     <use xlink:href="#DejaVuSans-88"/>
    </g>
   </g>
   <g id="Line3DCollection_1">
    <path d="M 435.872836 267.369939 
L 582.127922 87.869541 
L 584.803143 48.0038 
" style="fill:none;stroke:#b0b0b0;stroke-width:0.8;"/>
    <path d="M 458.076593 313.532545 
L 604.388293 133.689828 
L 609.499558 98.790509 
" style="fill:none;stroke:#b0b0b0;stroke-width:0.8;"/>
    <path d="M 480.322792 359.783393 
L 626.691057 179.597376 
L 634.248153 149.68452 
" style="fill:none;stroke:#b0b0b0;stroke-width:0.8;"/>
    <path d="M 502.611557 406.122736 
L 649.036336 225.592434 
L 659.049092 200.686175 
" style="fill:none;stroke:#b0b0b0;stroke-width:0.8;"/>
    <path d="M 524.943009 452.550827 
L 671.424251 271.675254 
L 683.902541 251.795815 
" style="fill:none;stroke:#b0b0b0;stroke-width:0.8;"/>
   </g>
   <g id="xtick_1">
    <g id="line2d_2">
     <path d="M 437.047202 265.928627 
L 433.523894 270.25282 
" style="fill:none;stroke:#000000;stroke-linecap:square;stroke-width:0.8;"/>
    </g>
    <g id="text_2">
     <!-- 0.40 -->
     <defs>
      <path d="M 31.78125 66.40625 
Q 24.171875 66.40625 20.328125 58.90625 
Q 16.5 51.421875 16.5 36.375 
Q 16.5 21.390625 20.328125 13.890625 
Q 24.171875 6.390625 31.78125 6.390625 
Q 39.453125 6.390625 43.28125 13.890625 
Q 47.125 21.390625 47.125 36.375 
Q 47.125 51.421875 43.28125 58.90625 
Q 39.453125 66.40625 31.78125 66.40625 
z
M 31.78125 74.21875 
Q 44.046875 74.21875 50.515625 64.515625 
Q 56.984375 54.828125 56.984375 36.375 
Q 56.984375 17.96875 50.515625 8.265625 
Q 44.046875 -1.421875 31.78125 -1.421875 
Q 19.53125 -1.421875 13.0625 8.265625 
Q 6.59375 17.96875 6.59375 36.375 
Q 6.59375 54.828125 13.0625 64.515625 
Q 19.53125 74.21875 31.78125 74.21875 
z
" id="DejaVuSans-48"/>
      <path d="M 10.6875 12.40625 
L 21 12.40625 
L 21 0 
L 10.6875 0 
z
" id="DejaVuSans-46"/>
      <path d="M 37.796875 64.3125 
L 12.890625 25.390625 
L 37.796875 25.390625 
z
M 35.203125 72.90625 
L 47.609375 72.90625 
L 47.609375 25.390625 
L 58.015625 25.390625 
L 58.015625 17.1875 
L 47.609375 17.1875 
L 47.609375 0 
L 37.796875 0 
L 37.796875 17.1875 
L 4.890625 17.1875 
L 4.890625 26.703125 
z
" id="DejaVuSans-52"/>
     </defs>
     <g transform="translate(418.140933 284.688474)scale(0.1 -0.1)">
      <use xlink:href="#DejaVuSans-48"/>
      <use x="63.623047" xlink:href="#DejaVuSans-46"/>
      <use x="95.410156" xlink:href="#DejaVuSans-52"/>
      <use x="159.033203" xlink:href="#DejaVuSans-48"/>
     </g>
    </g>
   </g>
   <g id="xtick_2">
    <g id="line2d_3">
     <path d="M 459.251418 312.08848 
L 455.726733 316.420935 
" style="fill:none;stroke:#000000;stroke-linecap:square;stroke-width:0.8;"/>
    </g>
    <g id="text_3">
     <!-- 0.45 -->
     <defs>
      <path d="M 10.796875 72.90625 
L 49.515625 72.90625 
L 49.515625 64.59375 
L 19.828125 64.59375 
L 19.828125 46.734375 
Q 21.96875 47.46875 24.109375 47.828125 
Q 26.265625 48.1875 28.421875 48.1875 
Q 40.625 48.1875 47.75 41.5 
Q 54.890625 34.8125 54.890625 23.390625 
Q 54.890625 11.625 47.5625 5.09375 
Q 40.234375 -1.421875 26.90625 -1.421875 
Q 22.3125 -1.421875 17.546875 -0.640625 
Q 12.796875 0.140625 7.71875 1.703125 
L 7.71875 11.625 
Q 12.109375 9.234375 16.796875 8.0625 
Q 21.484375 6.890625 26.703125 6.890625 
Q 35.15625 6.890625 40.078125 11.328125 
Q 45.015625 15.765625 45.015625 23.390625 
Q 45.015625 31 40.078125 35.4375 
Q 35.15625 39.890625 26.703125 39.890625 
Q 22.75 39.890625 18.8125 39.015625 
Q 14.890625 38.140625 10.796875 36.28125 
z
" id="DejaVuSans-53"/>
     </defs>
     <g transform="translate(440.234942 330.64519)scale(0.1 -0.1)">
      <use xlink:href="#DejaVuSans-48"/>
      <use x="63.623047" xlink:href="#DejaVuSans-46"/>
      <use x="95.410156" xlink:href="#DejaVuSans-52"/>
      <use x="159.033203" xlink:href="#DejaVuSans-53"/>
     </g>
    </g>
   </g>
   <g id="xtick_3">
    <g id="line2d_4">
     <path d="M 481.498076 358.336566 
L 477.972015 362.677307 
" style="fill:none;stroke:#000000;stroke-linecap:square;stroke-width:0.8;"/>
    </g>
    <g id="text_4">
     <!-- 0.50 -->
     <g transform="translate(462.370989 376.689344)scale(0.1 -0.1)">
      <use xlink:href="#DejaVuSans-48"/>
      <use x="63.623047" xlink:href="#DejaVuSans-46"/>
      <use x="95.410156" xlink:href="#DejaVuSans-53"/>
      <use x="159.033203" xlink:href="#DejaVuSans-48"/>
     </g>
    </g>
   </g>
   <g id="xtick_4">
    <g id="line2d_5">
     <path d="M 503.787298 404.673139 
L 500.259864 409.022189 
" style="fill:none;stroke:#000000;stroke-linecap:square;stroke-width:0.8;"/>
    </g>
    <g id="text_5">
     <!-- 0.55 -->
     <g transform="translate(484.549192 422.821186)scale(0.1 -0.1)">
      <use xlink:href="#DejaVuSans-48"/>
      <use x="63.623047" xlink:href="#DejaVuSans-46"/>
      <use x="95.410156" xlink:href="#DejaVuSans-53"/>
      <use x="159.033203" xlink:href="#DejaVuSans-53"/>
     </g>
    </g>
   </g>
   <g id="xtick_5">
    <g id="line2d_6">
     <path d="M 526.119208 451.098453 
L 522.590401 455.455837 
" style="fill:none;stroke:#000000;stroke-linecap:square;stroke-width:0.8;"/>
    </g>
    <g id="text_6">
     <!-- 0.60 -->
     <defs>
      <path d="M 33.015625 40.375 
Q 26.375 40.375 22.484375 35.828125 
Q 18.609375 31.296875 18.609375 23.390625 
Q 18.609375 15.53125 22.484375 10.953125 
Q 26.375 6.390625 33.015625 6.390625 
Q 39.65625 6.390625 43.53125 10.953125 
Q 47.40625 15.53125 47.40625 23.390625 
Q 47.40625 31.296875 43.53125 35.828125 
Q 39.65625 40.375 33.015625 40.375 
z
M 52.59375 71.296875 
L 52.59375 62.3125 
Q 48.875 64.0625 45.09375 64.984375 
Q 41.3125 65.921875 37.59375 65.921875 
Q 27.828125 65.921875 22.671875 59.328125 
Q 17.53125 52.734375 16.796875 39.40625 
Q 19.671875 43.65625 24.015625 45.921875 
Q 28.375 48.1875 33.59375 48.1875 
Q 44.578125 48.1875 50.953125 41.515625 
Q 57.328125 34.859375 57.328125 23.390625 
Q 57.328125 12.15625 50.6875 5.359375 
Q 44.046875 -1.421875 33.015625 -1.421875 
Q 20.359375 -1.421875 13.671875 8.265625 
Q 6.984375 17.96875 6.984375 36.375 
Q 6.984375 53.65625 15.1875 63.9375 
Q 23.390625 74.21875 37.203125 74.21875 
Q 40.921875 74.21875 44.703125 73.484375 
Q 48.484375 72.75 52.59375 71.296875 
z
" id="DejaVuSans-54"/>
     </defs>
     <g transform="translate(506.769672 469.040966)scale(0.1 -0.1)">
      <use xlink:href="#DejaVuSans-48"/>
      <use x="63.623047" xlink:href="#DejaVuSans-46"/>
      <use x="95.410156" xlink:href="#DejaVuSans-54"/>
      <use x="159.033203" xlink:href="#DejaVuSans-48"/>
     </g>
    </g>
   </g>
  </g>
  <g id="axis3d_2">
   <g id="line2d_7">
    <path d="M 687.3556 304.468013 
L 540.834276 485.589485 
" style="fill:none;stroke:#000000;stroke-linecap:square;stroke-width:0.8;"/>
   </g>
   <g id="text_7">
    <!-- Y -->
    <defs>
     <path d="M -0.203125 72.90625 
L 10.40625 72.90625 
L 30.609375 42.921875 
L 50.6875 72.90625 
L 61.28125 72.90625 
L 35.5 34.71875 
L 35.5 0 
L 25.59375 0 
L 25.59375 34.71875 
z
" id="DejaVuSans-89"/>
    </defs>
    <g transform="translate(622.599454 423.084002)scale(0.1 -0.1)">
     <use xlink:href="#DejaVuSans-89"/>
    </g>
   </g>
   <g id="Line3DCollection_2">
    <path d="M 424.807009 215.524078 
L 437.92329 238.971968 
L 550.73398 473.352024 
" style="fill:none;stroke:#b0b0b0;stroke-width:0.8;"/>
    <path d="M 444.911285 190.883273 
L 456.037115 216.752582 
L 568.883504 450.916597 
" style="fill:none;stroke:#b0b0b0;stroke-width:0.8;"/>
    <path d="M 464.995056 166.267599 
L 474.134288 194.553623 
L 587.016262 428.501895 
" style="fill:none;stroke:#b0b0b0;stroke-width:0.8;"/>
    <path d="M 485.058353 141.677019 
L 492.214832 172.375063 
L 605.132277 406.10789 
" style="fill:none;stroke:#b0b0b0;stroke-width:0.8;"/>
    <path d="M 505.101208 117.111495 
L 510.27877 150.216872 
L 623.231572 383.734552 
" style="fill:none;stroke:#b0b0b0;stroke-width:0.8;"/>
    <path d="M 525.123651 92.570988 
L 528.326124 128.079025 
L 641.314171 361.381854 
" style="fill:none;stroke:#b0b0b0;stroke-width:0.8;"/>
    <path d="M 545.125714 68.05546 
L 546.356917 105.961491 
L 659.380097 339.049767 
" style="fill:none;stroke:#b0b0b0;stroke-width:0.8;"/>
    <path d="M 565.107428 43.564873 
L 564.371172 83.864244 
L 677.429372 316.738262 
" style="fill:none;stroke:#b0b0b0;stroke-width:0.8;"/>
   </g>
   <g id="xtick_6">
    <g id="line2d_8">
     <path d="M 549.827152 471.467961 
L 552.547848 477.120588 
" style="fill:none;stroke:#000000;stroke-linecap:square;stroke-width:0.8;"/>
    </g>
    <g id="text_8">
     <!-- 1.35 -->
     <defs>
      <path d="M 12.40625 8.296875 
L 28.515625 8.296875 
L 28.515625 63.921875 
L 10.984375 60.40625 
L 10.984375 69.390625 
L 28.421875 72.90625 
L 38.28125 72.90625 
L 38.28125 8.296875 
L 54.390625 8.296875 
L 54.390625 0 
L 12.40625 0 
z
" id="DejaVuSans-49"/>
      <path d="M 40.578125 39.3125 
Q 47.65625 37.796875 51.625 33 
Q 55.609375 28.21875 55.609375 21.1875 
Q 55.609375 10.40625 48.1875 4.484375 
Q 40.765625 -1.421875 27.09375 -1.421875 
Q 22.515625 -1.421875 17.65625 -0.515625 
Q 12.796875 0.390625 7.625 2.203125 
L 7.625 11.71875 
Q 11.71875 9.328125 16.59375 8.109375 
Q 21.484375 6.890625 26.8125 6.890625 
Q 36.078125 6.890625 40.9375 10.546875 
Q 45.796875 14.203125 45.796875 21.1875 
Q 45.796875 27.640625 41.28125 31.265625 
Q 36.765625 34.90625 28.71875 34.90625 
L 20.21875 34.90625 
L 20.21875 43.015625 
L 29.109375 43.015625 
Q 36.375 43.015625 40.234375 45.921875 
Q 44.09375 48.828125 44.09375 54.296875 
Q 44.09375 59.90625 40.109375 62.90625 
Q 36.140625 65.921875 28.71875 65.921875 
Q 24.65625 65.921875 20.015625 65.03125 
Q 15.375 64.15625 9.8125 62.3125 
L 9.8125 71.09375 
Q 15.4375 72.65625 20.34375 73.4375 
Q 25.25 74.21875 29.59375 74.21875 
Q 40.828125 74.21875 47.359375 69.109375 
Q 53.90625 64.015625 53.90625 55.328125 
Q 53.90625 49.265625 50.4375 45.09375 
Q 46.96875 40.921875 40.578125 39.3125 
z
" id="DejaVuSans-51"/>
     </defs>
     <g transform="translate(545.185511 492.38407)scale(0.1 -0.1)">
      <use xlink:href="#DejaVuSans-49"/>
      <use x="63.623047" xlink:href="#DejaVuSans-46"/>
      <use x="95.410156" xlink:href="#DejaVuSans-51"/>
      <use x="159.033203" xlink:href="#DejaVuSans-53"/>
     </g>
    </g>
   </g>
   <g id="xtick_7">
    <g id="line2d_9">
     <path d="M 567.976391 449.034274 
L 570.697942 454.681679 
" style="fill:none;stroke:#000000;stroke-linecap:square;stroke-width:0.8;"/>
    </g>
    <g id="text_9">
     <!-- 1.40 -->
     <g transform="translate(563.248626 470.047023)scale(0.1 -0.1)">
      <use xlink:href="#DejaVuSans-49"/>
      <use x="63.623047" xlink:href="#DejaVuSans-46"/>
      <use x="95.410156" xlink:href="#DejaVuSans-52"/>
      <use x="159.033203" xlink:href="#DejaVuSans-48"/>
     </g>
    </g>
   </g>
   <g id="xtick_8">
    <g id="line2d_10">
     <path d="M 586.108865 426.621311 
L 588.831267 432.2635 
" style="fill:none;stroke:#000000;stroke-linecap:square;stroke-width:0.8;"/>
    </g>
    <g id="text_10">
     <!-- 1.45 -->
     <g transform="translate(581.295132 447.730514)scale(0.1 -0.1)">
      <use xlink:href="#DejaVuSans-49"/>
      <use x="63.623047" xlink:href="#DejaVuSans-46"/>
      <use x="95.410156" xlink:href="#DejaVuSans-52"/>
      <use x="159.033203" xlink:href="#DejaVuSans-53"/>
     </g>
    </g>
   </g>
   <g id="xtick_9">
    <g id="line2d_11">
     <path d="M 604.224597 404.229042 
L 606.947849 409.866022 
" style="fill:none;stroke:#000000;stroke-linecap:square;stroke-width:0.8;"/>
    </g>
    <g id="text_11">
     <!-- 1.50 -->
     <g transform="translate(599.325052 425.434517)scale(0.1 -0.1)">
      <use xlink:href="#DejaVuSans-49"/>
      <use x="63.623047" xlink:href="#DejaVuSans-46"/>
      <use x="95.410156" xlink:href="#DejaVuSans-53"/>
      <use x="159.033203" xlink:href="#DejaVuSans-48"/>
     </g>
    </g>
   </g>
   <g id="xtick_10">
    <g id="line2d_12">
     <path d="M 622.32361 381.857438 
L 625.047708 387.489217 
" style="fill:none;stroke:#000000;stroke-linecap:square;stroke-width:0.8;"/>
    </g>
    <g id="text_12">
     <!-- 1.55 -->
     <g transform="translate(617.338408 403.159001)scale(0.1 -0.1)">
      <use xlink:href="#DejaVuSans-49"/>
      <use x="63.623047" xlink:href="#DejaVuSans-46"/>
      <use x="95.410156" xlink:href="#DejaVuSans-53"/>
      <use x="159.033203" xlink:href="#DejaVuSans-53"/>
     </g>
    </g>
   </g>
   <g id="xtick_11">
    <g id="line2d_13">
     <path d="M 640.405927 359.506471 
L 643.13087 365.133056 
" style="fill:none;stroke:#000000;stroke-linecap:square;stroke-width:0.8;"/>
    </g>
    <g id="text_13">
     <!-- 1.60 -->
     <g transform="translate(635.335224 380.90394)scale(0.1 -0.1)">
      <use xlink:href="#DejaVuSans-49"/>
      <use x="63.623047" xlink:href="#DejaVuSans-46"/>
      <use x="95.410156" xlink:href="#DejaVuSans-54"/>
      <use x="159.033203" xlink:href="#DejaVuSans-48"/>
     </g>
    </g>
   </g>
   <g id="xtick_12">
    <g id="line2d_14">
     <path d="M 658.471572 337.176113 
L 661.197356 342.79751 
" style="fill:none;stroke:#000000;stroke-linecap:square;stroke-width:0.8;"/>
    </g>
    <g id="text_14">
     <!-- 1.65 -->
     <g transform="translate(653.315522 358.669306)scale(0.1 -0.1)">
      <use xlink:href="#DejaVuSans-49"/>
      <use x="63.623047" xlink:href="#DejaVuSans-46"/>
      <use x="95.410156" xlink:href="#DejaVuSans-54"/>
      <use x="159.033203" xlink:href="#DejaVuSans-53"/>
     </g>
    </g>
   </g>
   <g id="xtick_13">
    <g id="line2d_15">
     <path d="M 676.520568 314.866334 
L 679.24719 320.482552 
" style="fill:none;stroke:#000000;stroke-linecap:square;stroke-width:0.8;"/>
    </g>
    <g id="text_15">
     <!-- 1.70 -->
     <defs>
      <path d="M 8.203125 72.90625 
L 55.078125 72.90625 
L 55.078125 68.703125 
L 28.609375 0 
L 18.3125 0 
L 43.21875 64.59375 
L 8.203125 64.59375 
z
" id="DejaVuSans-55"/>
     </defs>
     <g transform="translate(671.279324 336.455069)scale(0.1 -0.1)">
      <use xlink:href="#DejaVuSans-49"/>
      <use x="63.623047" xlink:href="#DejaVuSans-46"/>
      <use x="95.410156" xlink:href="#DejaVuSans-55"/>
      <use x="159.033203" xlink:href="#DejaVuSans-48"/>
     </g>
    </g>
   </g>
  </g>
  <g id="axis3d_3">
   <g id="line2d_16">
    <path d="M 687.3556 304.468013 
L 701.591541 288.17219 
" style="fill:none;stroke:#000000;stroke-linecap:square;stroke-width:0.8;"/>
   </g>
   <g id="text_16">
    <!-- Z -->
    <defs>
     <path d="M 5.609375 72.90625 
L 62.890625 72.90625 
L 62.890625 65.375 
L 16.796875 8.296875 
L 64.015625 8.296875 
L 64.015625 0 
L 4.5 0 
L 4.5 7.515625 
L 50.59375 64.59375 
L 5.609375 64.59375 
z
" id="DejaVuSans-90"/>
    </defs>
    <g transform="translate(719.889724 305.514979)scale(0.1 -0.1)">
     <use xlink:href="#DejaVuSans-90"/>
    </g>
   </g>
   <g id="Line3DCollection_3">
    <path d="M 688.431048 303.236952 
L 574.415538 68.566497 
L 426.970025 249.419855 
" style="fill:none;stroke:#b0b0b0;stroke-width:0.8;"/>
    <path d="M 690.919845 300.388037 
L 574.73338 61.28865 
L 424.486814 245.55135 
" style="fill:none;stroke:#b0b0b0;stroke-width:0.8;"/>
    <path d="M 693.505187 297.428606 
L 575.06349 53.729902 
L 421.907386 241.532952 
" style="fill:none;stroke:#b0b0b0;stroke-width:0.8;"/>
    <path d="M 696.192804 294.352101 
L 575.406592 45.873669 
L 419.226038 237.355775 
" style="fill:none;stroke:#b0b0b0;stroke-width:0.8;"/>
    <path d="M 698.988887 291.151436 
L 575.763468 37.702039 
L 416.436606 233.010219 
" style="fill:none;stroke:#b0b0b0;stroke-width:0.8;"/>
   </g>
   <g id="xtick_14">
    <g id="line2d_17">
     <path d="M 687.514514 301.350511 
L 690.264331 307.010274 
" style="fill:none;stroke:#000000;stroke-linecap:square;stroke-width:0.8;"/>
    </g>
    <g id="text_17">
     <!-- −0.05 -->
     <defs>
      <path d="M 10.59375 35.5 
L 73.1875 35.5 
L 73.1875 27.203125 
L 10.59375 27.203125 
z
" id="DejaVuSans-8722"/>
     </defs>
     <g transform="translate(685.985939 313.486003)scale(0.1 -0.1)">
      <use xlink:href="#DejaVuSans-8722"/>
      <use x="83.789062" xlink:href="#DejaVuSans-48"/>
      <use x="147.412109" xlink:href="#DejaVuSans-46"/>
      <use x="179.199219" xlink:href="#DejaVuSans-48"/>
      <use x="242.822266" xlink:href="#DejaVuSans-53"/>
     </g>
    </g>
   </g>
   <g id="xtick_15">
    <g id="line2d_18">
     <path d="M 689.985774 298.465817 
L 692.78821 304.232933 
" style="fill:none;stroke:#000000;stroke-linecap:square;stroke-width:0.8;"/>
    </g>
    <g id="text_18">
     <!-- 0.00 -->
     <g transform="translate(692.909754 310.687365)scale(0.1 -0.1)">
      <use xlink:href="#DejaVuSans-48"/>
      <use x="63.623047" xlink:href="#DejaVuSans-46"/>
      <use x="95.410156" xlink:href="#DejaVuSans-48"/>
      <use x="159.033203" xlink:href="#DejaVuSans-48"/>
     </g>
    </g>
   </g>
   <g id="xtick_16">
    <g id="line2d_19">
     <path d="M 692.552895 295.469224 
L 695.410004 301.347845 
" style="fill:none;stroke:#000000;stroke-linecap:square;stroke-width:0.8;"/>
    </g>
    <g id="text_19">
     <!-- 0.05 -->
     <g transform="translate(695.749787 307.780155)scale(0.1 -0.1)">
      <use xlink:href="#DejaVuSans-48"/>
      <use x="63.623047" xlink:href="#DejaVuSans-46"/>
      <use x="95.410156" xlink:href="#DejaVuSans-48"/>
      <use x="159.033203" xlink:href="#DejaVuSans-53"/>
     </g>
    </g>
   </g>
   <g id="xtick_17">
    <g id="line2d_20">
     <path d="M 695.221565 292.354093 
L 698.135523 298.348614 
" style="fill:none;stroke:#000000;stroke-linecap:square;stroke-width:0.8;"/>
    </g>
    <g id="text_20">
     <!-- 0.10 -->
     <g transform="translate(698.702177 304.757931)scale(0.1 -0.1)">
      <use xlink:href="#DejaVuSans-48"/>
      <use x="63.623047" xlink:href="#DejaVuSans-46"/>
      <use x="95.410156" xlink:href="#DejaVuSans-49"/>
      <use x="159.033203" xlink:href="#DejaVuSans-48"/>
     </g>
    </g>
   </g>
   <g id="xtick_18">
    <g id="line2d_21">
     <path d="M 697.997933 289.113247 
L 700.971047 295.228331 
" style="fill:none;stroke:#000000;stroke-linecap:square;stroke-width:0.8;"/>
    </g>
    <g id="text_21">
     <!-- 0.15 -->
     <g transform="translate(701.773725 301.61373)scale(0.1 -0.1)">
      <use xlink:href="#DejaVuSans-48"/>
      <use x="63.623047" xlink:href="#DejaVuSans-46"/>
      <use x="95.410156" xlink:href="#DejaVuSans-49"/>
      <use x="159.033203" xlink:href="#DejaVuSans-53"/>
     </g>
    </g>
   </g>
  </g>
  <g id="axes_1">
   <g id="line2d_22">
    <path clip-path="url(#pea264a82d9)" d="M 600.468071 146.849908 
L 594.58116 131.443743 
" style="fill:none;stroke:#ff0000;stroke-linecap:square;stroke-width:1.5;"/>
   </g>
   <g id="line2d_23">
    <path clip-path="url(#pea264a82d9)" d="M 600.468071 146.849908 
L 595.750674 133.036913 
" style="fill:none;stroke:#008000;stroke-linecap:square;stroke-width:1.5;"/>
   </g>
   <g id="line2d_24">
    <path clip-path="url(#pea264a82d9)" d="M 600.468071 146.849908 
L 591.230121 152.077371 
" style="fill:none;stroke:#0000ff;stroke-linecap:square;stroke-width:1.5;"/>
   </g>
   <g id="line2d_25">
    <path clip-path="url(#pea264a82d9)" d="M 586.808837 143.377269 
L 580.926564 128.110655 
" style="fill:none;stroke:#ff0000;stroke-linecap:square;stroke-width:1.5;"/>
   </g>
   <g id="line2d_26">
    <path clip-path="url(#pea264a82d9)" d="M 586.808837 143.377269 
L 582.133509 129.533053 
" style="fill:none;stroke:#008000;stroke-linecap:square;stroke-width:1.5;"/>
   </g>
   <g id="line2d_27">
    <path clip-path="url(#pea264a82d9)" d="M 586.808837 143.377269 
L 577.616662 148.571914 
" style="fill:none;stroke:#0000ff;stroke-linecap:square;stroke-width:1.5;"/>
   </g>
   <g id="line2d_28">
    <path clip-path="url(#pea264a82d9)" d="M 576.437818 155.788751 
L 570.433062 140.243655 
" style="fill:none;stroke:#ff0000;stroke-linecap:square;stroke-width:1.5;"/>
   </g>
   <g id="line2d_29">
    <path clip-path="url(#pea264a82d9)" d="M 576.437818 155.788751 
L 572.243932 142.035814 
" style="fill:none;stroke:#008000;stroke-linecap:square;stroke-width:1.5;"/>
   </g>
   <g id="line2d_30">
    <path clip-path="url(#pea264a82d9)" d="M 576.437818 155.788751 
L 567.078372 160.464042 
" style="fill:none;stroke:#0000ff;stroke-linecap:square;stroke-width:1.5;"/>
   </g>
   <g id="line2d_31">
    <path clip-path="url(#pea264a82d9)" d="M 570.941338 173.569258 
L 564.985471 158.503353 
" style="fill:none;stroke:#ff0000;stroke-linecap:square;stroke-width:1.5;"/>
   </g>
   <g id="line2d_32">
    <path clip-path="url(#pea264a82d9)" d="M 570.941338 173.569258 
L 566.961357 159.445276 
" style="fill:none;stroke:#008000;stroke-linecap:square;stroke-width:1.5;"/>
   </g>
   <g id="line2d_33">
    <path clip-path="url(#pea264a82d9)" d="M 570.941338 173.569258 
L 561.580006 177.87185 
" style="fill:none;stroke:#0000ff;stroke-linecap:square;stroke-width:1.5;"/>
   </g>
   <g id="line2d_34">
    <path clip-path="url(#pea264a82d9)" d="M 556.735172 142.261279 
L 550.04478 125.814152 
" style="fill:none;stroke:#ff0000;stroke-linecap:square;stroke-width:1.5;"/>
   </g>
   <g id="line2d_35">
    <path clip-path="url(#pea264a82d9)" d="M 556.735172 142.261279 
L 553.452621 129.307891 
" style="fill:none;stroke:#008000;stroke-linecap:square;stroke-width:1.5;"/>
   </g>
   <g id="line2d_36">
    <path clip-path="url(#pea264a82d9)" d="M 556.735172 142.261279 
L 547.369679 146.887949 
" style="fill:none;stroke:#0000ff;stroke-linecap:square;stroke-width:1.5;"/>
   </g>
   <g id="line2d_37">
    <path clip-path="url(#pea264a82d9)" d="M 537.919388 148.409376 
L 531.155647 131.988473 
" style="fill:none;stroke:#ff0000;stroke-linecap:square;stroke-width:1.5;"/>
   </g>
   <g id="line2d_38">
    <path clip-path="url(#pea264a82d9)" d="M 537.919388 148.409376 
L 535.128634 135.309733 
" style="fill:none;stroke:#008000;stroke-linecap:square;stroke-width:1.5;"/>
   </g>
   <g id="line2d_39">
    <path clip-path="url(#pea264a82d9)" d="M 537.919388 148.409376 
L 528.478316 152.490563 
" style="fill:none;stroke:#0000ff;stroke-linecap:square;stroke-width:1.5;"/>
   </g>
   <g id="line2d_40">
    <path clip-path="url(#pea264a82d9)" d="M 553.325613 181.771463 
L 548.110883 167.813247 
" style="fill:none;stroke:#ff0000;stroke-linecap:square;stroke-width:1.5;"/>
   </g>
   <g id="line2d_41">
    <path clip-path="url(#pea264a82d9)" d="M 553.325613 181.771463 
L 549.656343 166.253238 
" style="fill:none;stroke:#008000;stroke-linecap:square;stroke-width:1.5;"/>
   </g>
   <g id="line2d_42">
    <path clip-path="url(#pea264a82d9)" d="M 553.325613 181.771463 
L 543.460933 184.270191 
" style="fill:none;stroke:#0000ff;stroke-linecap:square;stroke-width:1.5;"/>
   </g>
   <g id="line2d_43">
    <path clip-path="url(#pea264a82d9)" d="M 537.125463 199.652532 
L 532.761753 187.744722 
" style="fill:none;stroke:#ff0000;stroke-linecap:square;stroke-width:1.5;"/>
   </g>
   <g id="line2d_44">
    <path clip-path="url(#pea264a82d9)" d="M 537.125463 199.652532 
L 534.11403 182.356565 
" style="fill:none;stroke:#008000;stroke-linecap:square;stroke-width:1.5;"/>
   </g>
   <g id="line2d_45">
    <path clip-path="url(#pea264a82d9)" d="M 537.125463 199.652532 
L 526.654632 199.558368 
" style="fill:none;stroke:#0000ff;stroke-linecap:square;stroke-width:1.5;"/>
   </g>
   <g id="line2d_46">
    <path clip-path="url(#pea264a82d9)" d="M 525.034167 170.286717 
L 519.782643 156.530589 
" style="fill:none;stroke:#ff0000;stroke-linecap:square;stroke-width:1.5;"/>
   </g>
   <g id="line2d_47">
    <path clip-path="url(#pea264a82d9)" d="M 525.034167 170.286717 
L 522.439543 153.877759 
" style="fill:none;stroke:#008000;stroke-linecap:square;stroke-width:1.5;"/>
   </g>
   <g id="line2d_48">
    <path clip-path="url(#pea264a82d9)" d="M 525.034167 170.286717 
L 514.604705 170.806878 
" style="fill:none;stroke:#0000ff;stroke-linecap:square;stroke-width:1.5;"/>
   </g>
   <g id="line2d_49">
    <path clip-path="url(#pea264a82d9)" d="M 589.333168 237.483287 
L 584.720909 224.914674 
" style="fill:none;stroke:#ff0000;stroke-linecap:square;stroke-width:1.5;"/>
   </g>
   <g id="line2d_50">
    <path clip-path="url(#pea264a82d9)" d="M 589.333168 237.483287 
L 585.286926 219.716267 
" style="fill:none;stroke:#008000;stroke-linecap:square;stroke-width:1.5;"/>
   </g>
   <g id="line2d_51">
    <path clip-path="url(#pea264a82d9)" d="M 589.333168 237.483287 
L 578.773746 239.05358 
" style="fill:none;stroke:#0000ff;stroke-linecap:square;stroke-width:1.5;"/>
   </g>
   <g id="line2d_52">
    <path clip-path="url(#pea264a82d9)" d="M 613.167957 299.938474 
L 609.96694 290.283113 
" style="fill:none;stroke:#ff0000;stroke-linecap:square;stroke-width:1.5;"/>
   </g>
   <g id="line2d_53">
    <path clip-path="url(#pea264a82d9)" d="M 613.167957 299.938474 
L 608.628255 280.893734 
" style="fill:none;stroke:#008000;stroke-linecap:square;stroke-width:1.5;"/>
   </g>
   <g id="line2d_54">
    <path clip-path="url(#pea264a82d9)" d="M 613.167957 299.938474 
L 602.557521 300.749623 
" style="fill:none;stroke:#0000ff;stroke-linecap:square;stroke-width:1.5;"/>
   </g>
   <g id="line2d_55">
    <path clip-path="url(#pea264a82d9)" d="M 590.61026 319.572181 
L 586.956261 310.181553 
" style="fill:none;stroke:#ff0000;stroke-linecap:square;stroke-width:1.5;"/>
   </g>
   <g id="line2d_56">
    <path clip-path="url(#pea264a82d9)" d="M 590.61026 319.572181 
L 586.876819 300.356753 
" style="fill:none;stroke:#008000;stroke-linecap:square;stroke-width:1.5;"/>
   </g>
   <g id="line2d_57">
    <path clip-path="url(#pea264a82d9)" d="M 590.61026 319.572181 
L 579.831293 319.281523 
" style="fill:none;stroke:#0000ff;stroke-linecap:square;stroke-width:1.5;"/>
   </g>
   <g id="line2d_58">
    <path clip-path="url(#pea264a82d9)" d="M 569.444424 275.308437 
L 564.235038 263.062336 
" style="fill:none;stroke:#ff0000;stroke-linecap:square;stroke-width:1.5;"/>
   </g>
   <g id="line2d_59">
    <path clip-path="url(#pea264a82d9)" d="M 569.444424 275.308437 
L 566.104274 256.976058 
" style="fill:none;stroke:#008000;stroke-linecap:square;stroke-width:1.5;"/>
   </g>
   <g id="line2d_60">
    <path clip-path="url(#pea264a82d9)" d="M 569.444424 275.308437 
L 558.761485 276.130206 
" style="fill:none;stroke:#0000ff;stroke-linecap:square;stroke-width:1.5;"/>
   </g>
   <g id="line2d_61">
    <path clip-path="url(#pea264a82d9)" d="M 546.268637 324.350449 
L 540.833836 312.619825 
" style="fill:none;stroke:#ff0000;stroke-linecap:square;stroke-width:1.5;"/>
   </g>
   <g id="line2d_62">
    <path clip-path="url(#pea264a82d9)" d="M 546.268637 324.350449 
L 543.820854 305.57496 
" style="fill:none;stroke:#008000;stroke-linecap:square;stroke-width:1.5;"/>
   </g>
   <g id="line2d_63">
    <path clip-path="url(#pea264a82d9)" d="M 546.268637 324.350449 
L 535.406141 323.643369 
" style="fill:none;stroke:#0000ff;stroke-linecap:square;stroke-width:1.5;"/>
   </g>
   <g id="line2d_64">
    <path clip-path="url(#pea264a82d9)" d="M 575.725021 417.989311 
L 570.98328 408.15682 
" style="fill:none;stroke:#ff0000;stroke-linecap:square;stroke-width:1.5;"/>
   </g>
   <g id="line2d_65">
    <path clip-path="url(#pea264a82d9)" d="M 575.725021 417.989311 
L 573.568121 398.882584 
" style="fill:none;stroke:#008000;stroke-linecap:square;stroke-width:1.5;"/>
   </g>
   <g id="line2d_66">
    <path clip-path="url(#pea264a82d9)" d="M 575.725021 417.989311 
L 564.829146 415.801919 
" style="fill:none;stroke:#0000ff;stroke-linecap:square;stroke-width:1.5;"/>
   </g>
   <g id="line2d_67">
    <path clip-path="url(#pea264a82d9)" d="M 535.051478 318.351861 
L 529.795157 307.375811 
" style="fill:none;stroke:#ff0000;stroke-linecap:square;stroke-width:1.5;"/>
   </g>
   <g id="line2d_68">
    <path clip-path="url(#pea264a82d9)" d="M 535.051478 318.351861 
L 533.486984 300.30476 
" style="fill:none;stroke:#008000;stroke-linecap:square;stroke-width:1.5;"/>
   </g>
   <g id="line2d_69">
    <path clip-path="url(#pea264a82d9)" d="M 535.051478 318.351861 
L 524.52625 316.278385 
" style="fill:none;stroke:#0000ff;stroke-linecap:square;stroke-width:1.5;"/>
   </g>
   <g id="line2d_70">
    <path clip-path="url(#pea264a82d9)" d="M 505.545664 310.774676 
L 500.413841 300.270505 
" style="fill:none;stroke:#ff0000;stroke-linecap:square;stroke-width:1.5;"/>
   </g>
   <g id="line2d_71">
    <path clip-path="url(#pea264a82d9)" d="M 505.545664 310.774676 
L 504.868509 292.888769 
" style="fill:none;stroke:#008000;stroke-linecap:square;stroke-width:1.5;"/>
   </g>
   <g id="line2d_72">
    <path clip-path="url(#pea264a82d9)" d="M 505.545664 310.774676 
L 494.95338 306.971587 
" style="fill:none;stroke:#0000ff;stroke-linecap:square;stroke-width:1.5;"/>
   </g>
   <g id="line2d_73">
    <path clip-path="url(#pea264a82d9)" d="M 516.172654 387.832255 
L 511.506457 378.726956 
" style="fill:none;stroke:#ff0000;stroke-linecap:square;stroke-width:1.5;"/>
   </g>
   <g id="line2d_74">
    <path clip-path="url(#pea264a82d9)" d="M 516.172654 387.832255 
L 516.222931 369.600103 
" style="fill:none;stroke:#008000;stroke-linecap:square;stroke-width:1.5;"/>
   </g>
   <g id="line2d_75">
    <path clip-path="url(#pea264a82d9)" d="M 516.172654 387.832255 
L 505.249818 381.771106 
" style="fill:none;stroke:#0000ff;stroke-linecap:square;stroke-width:1.5;"/>
   </g>
   <g id="line2d_76">
    <path clip-path="url(#pea264a82d9)" d="M 535.88122 319.516383 
L 531.319088 309.133084 
" style="fill:none;stroke:#ff0000;stroke-linecap:square;stroke-width:1.5;"/>
   </g>
   <g id="line2d_77">
    <path clip-path="url(#pea264a82d9)" d="M 535.88122 319.516383 
L 535.788137 301.755061 
" style="fill:none;stroke:#008000;stroke-linecap:square;stroke-width:1.5;"/>
   </g>
   <g id="line2d_78">
    <path clip-path="url(#pea264a82d9)" d="M 535.88122 319.516383 
L 524.909162 314.141623 
" style="fill:none;stroke:#0000ff;stroke-linecap:square;stroke-width:1.5;"/>
   </g>
   <g id="line2d_79">
    <path clip-path="url(#pea264a82d9)" d="M 508.425817 301.871435 
L 503.245887 291.420985 
" style="fill:none;stroke:#ff0000;stroke-linecap:square;stroke-width:1.5;"/>
   </g>
   <g id="line2d_80">
    <path clip-path="url(#pea264a82d9)" d="M 508.425817 301.871435 
L 509.016167 284.540812 
" style="fill:none;stroke:#008000;stroke-linecap:square;stroke-width:1.5;"/>
   </g>
   <g id="line2d_81">
    <path clip-path="url(#pea264a82d9)" d="M 508.425817 301.871435 
L 497.865299 295.979905 
" style="fill:none;stroke:#0000ff;stroke-linecap:square;stroke-width:1.5;"/>
   </g>
   <g id="line2d_82">
    <path clip-path="url(#pea264a82d9)" d="M 514.864233 264.526207 
L 509.371563 251.435835 
" style="fill:none;stroke:#ff0000;stroke-linecap:square;stroke-width:1.5;"/>
   </g>
   <g id="line2d_83">
    <path clip-path="url(#pea264a82d9)" d="M 514.864233 264.526207 
L 515.181992 247.614116 
" style="fill:none;stroke:#008000;stroke-linecap:square;stroke-width:1.5;"/>
   </g>
   <g id="line2d_84">
    <path clip-path="url(#pea264a82d9)" d="M 514.864233 264.526207 
L 503.985133 260.165671 
" style="fill:none;stroke:#0000ff;stroke-linecap:square;stroke-width:1.5;"/>
   </g>
   <g id="line2d_85">
    <path clip-path="url(#pea264a82d9)" d="M 527.83645 359.353876 
L 522.797571 346.438313 
" style="fill:none;stroke:#ff0000;stroke-linecap:square;stroke-width:1.5;"/>
   </g>
   <g id="line2d_86">
    <path clip-path="url(#pea264a82d9)" d="M 527.83645 359.353876 
L 528.505819 342.152586 
" style="fill:none;stroke:#008000;stroke-linecap:square;stroke-width:1.5;"/>
   </g>
   <g id="line2d_87">
    <path clip-path="url(#pea264a82d9)" d="M 527.83645 359.353876 
L 516.494576 353.637618 
" style="fill:none;stroke:#0000ff;stroke-linecap:square;stroke-width:1.5;"/>
   </g>
   <g id="line2d_88">
    <path clip-path="url(#pea264a82d9)" d="M 489.128537 282.973364 
L 483.160034 269.37506 
" style="fill:none;stroke:#ff0000;stroke-linecap:square;stroke-width:1.5;"/>
   </g>
   <g id="line2d_89">
    <path clip-path="url(#pea264a82d9)" d="M 489.128537 282.973364 
L 490.712496 266.777008 
" style="fill:none;stroke:#008000;stroke-linecap:square;stroke-width:1.5;"/>
   </g>
   <g id="line2d_90">
    <path clip-path="url(#pea264a82d9)" d="M 489.128537 282.973364 
L 478.58632 277.373083 
" style="fill:none;stroke:#0000ff;stroke-linecap:square;stroke-width:1.5;"/>
   </g>
   <g id="line2d_91">
    <path clip-path="url(#pea264a82d9)" d="M 499.403072 339.531965 
L 493.955809 326.471594 
" style="fill:none;stroke:#ff0000;stroke-linecap:square;stroke-width:1.5;"/>
   </g>
   <g id="line2d_92">
    <path clip-path="url(#pea264a82d9)" d="M 499.403072 339.531965 
L 500.8937 322.934989 
" style="fill:none;stroke:#008000;stroke-linecap:square;stroke-width:1.5;"/>
   </g>
   <g id="line2d_93">
    <path clip-path="url(#pea264a82d9)" d="M 499.403072 339.531965 
L 488.453337 333.14715 
" style="fill:none;stroke:#0000ff;stroke-linecap:square;stroke-width:1.5;"/>
   </g>
   <g id="line2d_94">
    <path clip-path="url(#pea264a82d9)" d="M 520.186981 326.718231 
L 517.085426 318.865035 
" style="fill:none;stroke:#ff0000;stroke-linecap:square;stroke-width:1.5;"/>
   </g>
   <g id="line2d_95">
    <path clip-path="url(#pea264a82d9)" d="M 520.186981 326.718231 
L 519.827843 308.638839 
" style="fill:none;stroke:#008000;stroke-linecap:square;stroke-width:1.5;"/>
   </g>
   <g id="line2d_96">
    <path clip-path="url(#pea264a82d9)" d="M 520.186981 326.718231 
L 509.027131 320.304143 
" style="fill:none;stroke:#0000ff;stroke-linecap:square;stroke-width:1.5;"/>
   </g>
   <g id="line2d_97">
    <path clip-path="url(#pea264a82d9)" d="M 522.27921 354.304986 
L 519.159417 346.008074 
" style="fill:none;stroke:#ff0000;stroke-linecap:square;stroke-width:1.5;"/>
   </g>
   <g id="line2d_98">
    <path clip-path="url(#pea264a82d9)" d="M 522.27921 354.304986 
L 522.658045 336.837219 
" style="fill:none;stroke:#008000;stroke-linecap:square;stroke-width:1.5;"/>
   </g>
   <g id="line2d_99">
    <path clip-path="url(#pea264a82d9)" d="M 522.27921 354.304986 
L 511.131447 346.850133 
" style="fill:none;stroke:#0000ff;stroke-linecap:square;stroke-width:1.5;"/>
   </g>
   <g id="line2d_100">
    <path clip-path="url(#pea264a82d9)" d="M 480.763008 235.401426 
L 475.097304 219.743614 
" style="fill:none;stroke:#ff0000;stroke-linecap:square;stroke-width:1.5;"/>
   </g>
   <g id="line2d_101">
    <path clip-path="url(#pea264a82d9)" d="M 480.763008 235.401426 
L 482.740696 220.684717 
" style="fill:none;stroke:#008000;stroke-linecap:square;stroke-width:1.5;"/>
   </g>
   <g id="line2d_102">
    <path clip-path="url(#pea264a82d9)" d="M 480.763008 235.401426 
L 469.961895 230.048291 
" style="fill:none;stroke:#0000ff;stroke-linecap:square;stroke-width:1.5;"/>
   </g>
   <g id="line2d_103">
    <path clip-path="url(#pea264a82d9)" d="M 495.920684 324.511973 
L 490.658953 310.19518 
" style="fill:none;stroke:#ff0000;stroke-linecap:square;stroke-width:1.5;"/>
   </g>
   <g id="line2d_104">
    <path clip-path="url(#pea264a82d9)" d="M 495.920684 324.511973 
L 497.449858 308.297804 
" style="fill:none;stroke:#008000;stroke-linecap:square;stroke-width:1.5;"/>
   </g>
   <g id="line2d_105">
    <path clip-path="url(#pea264a82d9)" d="M 495.920684 324.511973 
L 484.609126 318.26984 
" style="fill:none;stroke:#0000ff;stroke-linecap:square;stroke-width:1.5;"/>
   </g>
   <g id="Path3DCollection_1">
    <defs>
     <path d="M 0 -5 
L -1.12257 -1.545085 
L -4.755283 -1.545085 
L -1.816356 0.59017 
L -2.938926 4.045085 
L -0 1.90983 
L 2.938926 4.045085 
L 1.816356 0.59017 
L 4.755283 -1.545085 
L 1.12257 -1.545085 
z
" id="m5a925804da" style="stroke:#ff0000;"/>
    </defs>
    <g clip-path="url(#pea264a82d9)">
     <use style="fill:#ff0000;stroke:#ff0000;" x="600.468071" xlink:href="#m5a925804da" y="146.849908"/>
    </g>
   </g>
   <g id="text_22">
    <!-- Stream_181205_153706.txt -->
    <defs>
     <path d="M 53.515625 70.515625 
L 53.515625 60.890625 
Q 47.90625 63.578125 42.921875 64.890625 
Q 37.9375 66.21875 33.296875 66.21875 
Q 25.25 66.21875 20.875 63.09375 
Q 16.5 59.96875 16.5 54.203125 
Q 16.5 49.359375 19.40625 46.890625 
Q 22.3125 44.4375 30.421875 42.921875 
L 36.375 41.703125 
Q 47.40625 39.59375 52.65625 34.296875 
Q 57.90625 29 57.90625 20.125 
Q 57.90625 9.515625 50.796875 4.046875 
Q 43.703125 -1.421875 29.984375 -1.421875 
Q 24.8125 -1.421875 18.96875 -0.25 
Q 13.140625 0.921875 6.890625 3.21875 
L 6.890625 13.375 
Q 12.890625 10.015625 18.65625 8.296875 
Q 24.421875 6.59375 29.984375 6.59375 
Q 38.421875 6.59375 43.015625 9.90625 
Q 47.609375 13.234375 47.609375 19.390625 
Q 47.609375 24.75 44.3125 27.78125 
Q 41.015625 30.8125 33.5 32.328125 
L 27.484375 33.5 
Q 16.453125 35.6875 11.515625 40.375 
Q 6.59375 45.0625 6.59375 53.421875 
Q 6.59375 63.09375 13.40625 68.65625 
Q 20.21875 74.21875 32.171875 74.21875 
Q 37.3125 74.21875 42.625 73.28125 
Q 47.953125 72.359375 53.515625 70.515625 
z
" id="DejaVuSans-83"/>
     <path d="M 18.3125 70.21875 
L 18.3125 54.6875 
L 36.8125 54.6875 
L 36.8125 47.703125 
L 18.3125 47.703125 
L 18.3125 18.015625 
Q 18.3125 11.328125 20.140625 9.421875 
Q 21.96875 7.515625 27.59375 7.515625 
L 36.8125 7.515625 
L 36.8125 0 
L 27.59375 0 
Q 17.1875 0 13.234375 3.875 
Q 9.28125 7.765625 9.28125 18.015625 
L 9.28125 47.703125 
L 2.6875 47.703125 
L 2.6875 54.6875 
L 9.28125 54.6875 
L 9.28125 70.21875 
z
" id="DejaVuSans-116"/>
     <path d="M 41.109375 46.296875 
Q 39.59375 47.171875 37.8125 47.578125 
Q 36.03125 48 33.890625 48 
Q 26.265625 48 22.1875 43.046875 
Q 18.109375 38.09375 18.109375 28.8125 
L 18.109375 0 
L 9.078125 0 
L 9.078125 54.6875 
L 18.109375 54.6875 
L 18.109375 46.1875 
Q 20.953125 51.171875 25.484375 53.578125 
Q 30.03125 56 36.53125 56 
Q 37.453125 56 38.578125 55.875 
Q 39.703125 55.765625 41.0625 55.515625 
z
" id="DejaVuSans-114"/>
     <path d="M 56.203125 29.59375 
L 56.203125 25.203125 
L 14.890625 25.203125 
Q 15.484375 15.921875 20.484375 11.0625 
Q 25.484375 6.203125 34.421875 6.203125 
Q 39.59375 6.203125 44.453125 7.46875 
Q 49.3125 8.734375 54.109375 11.28125 
L 54.109375 2.78125 
Q 49.265625 0.734375 44.1875 -0.34375 
Q 39.109375 -1.421875 33.890625 -1.421875 
Q 20.796875 -1.421875 13.15625 6.1875 
Q 5.515625 13.8125 5.515625 26.8125 
Q 5.515625 40.234375 12.765625 48.109375 
Q 20.015625 56 32.328125 56 
Q 43.359375 56 49.78125 48.890625 
Q 56.203125 41.796875 56.203125 29.59375 
z
M 47.21875 32.234375 
Q 47.125 39.59375 43.09375 43.984375 
Q 39.0625 48.390625 32.421875 48.390625 
Q 24.90625 48.390625 20.390625 44.140625 
Q 15.875 39.890625 15.1875 32.171875 
z
" id="DejaVuSans-101"/>
     <path d="M 34.28125 27.484375 
Q 23.390625 27.484375 19.1875 25 
Q 14.984375 22.515625 14.984375 16.5 
Q 14.984375 11.71875 18.140625 8.90625 
Q 21.296875 6.109375 26.703125 6.109375 
Q 34.1875 6.109375 38.703125 11.40625 
Q 43.21875 16.703125 43.21875 25.484375 
L 43.21875 27.484375 
z
M 52.203125 31.203125 
L 52.203125 0 
L 43.21875 0 
L 43.21875 8.296875 
Q 40.140625 3.328125 35.546875 0.953125 
Q 30.953125 -1.421875 24.3125 -1.421875 
Q 15.921875 -1.421875 10.953125 3.296875 
Q 6 8.015625 6 15.921875 
Q 6 25.140625 12.171875 29.828125 
Q 18.359375 34.515625 30.609375 34.515625 
L 43.21875 34.515625 
L 43.21875 35.40625 
Q 43.21875 41.609375 39.140625 45 
Q 35.0625 48.390625 27.6875 48.390625 
Q 23 48.390625 18.546875 47.265625 
Q 14.109375 46.140625 10.015625 43.890625 
L 10.015625 52.203125 
Q 14.9375 54.109375 19.578125 55.046875 
Q 24.21875 56 28.609375 56 
Q 40.484375 56 46.34375 49.84375 
Q 52.203125 43.703125 52.203125 31.203125 
z
" id="DejaVuSans-97"/>
     <path d="M 52 44.1875 
Q 55.375 50.25 60.0625 53.125 
Q 64.75 56 71.09375 56 
Q 79.640625 56 84.28125 50.015625 
Q 88.921875 44.046875 88.921875 33.015625 
L 88.921875 0 
L 79.890625 0 
L 79.890625 32.71875 
Q 79.890625 40.578125 77.09375 44.375 
Q 74.3125 48.1875 68.609375 48.1875 
Q 61.625 48.1875 57.5625 43.546875 
Q 53.515625 38.921875 53.515625 30.90625 
L 53.515625 0 
L 44.484375 0 
L 44.484375 32.71875 
Q 44.484375 40.625 41.703125 44.40625 
Q 38.921875 48.1875 33.109375 48.1875 
Q 26.21875 48.1875 22.15625 43.53125 
Q 18.109375 38.875 18.109375 30.90625 
L 18.109375 0 
L 9.078125 0 
L 9.078125 54.6875 
L 18.109375 54.6875 
L 18.109375 46.1875 
Q 21.1875 51.21875 25.484375 53.609375 
Q 29.78125 56 35.6875 56 
Q 41.65625 56 45.828125 52.96875 
Q 50 49.953125 52 44.1875 
z
" id="DejaVuSans-109"/>
     <path d="M 50.984375 -16.609375 
L 50.984375 -23.578125 
L -0.984375 -23.578125 
L -0.984375 -16.609375 
z
" id="DejaVuSans-95"/>
     <path d="M 31.78125 34.625 
Q 24.75 34.625 20.71875 30.859375 
Q 16.703125 27.09375 16.703125 20.515625 
Q 16.703125 13.921875 20.71875 10.15625 
Q 24.75 6.390625 31.78125 6.390625 
Q 38.8125 6.390625 42.859375 10.171875 
Q 46.921875 13.96875 46.921875 20.515625 
Q 46.921875 27.09375 42.890625 30.859375 
Q 38.875 34.625 31.78125 34.625 
z
M 21.921875 38.8125 
Q 15.578125 40.375 12.03125 44.71875 
Q 8.5 49.078125 8.5 55.328125 
Q 8.5 64.0625 14.71875 69.140625 
Q 20.953125 74.21875 31.78125 74.21875 
Q 42.671875 74.21875 48.875 69.140625 
Q 55.078125 64.0625 55.078125 55.328125 
Q 55.078125 49.078125 51.53125 44.71875 
Q 48 40.375 41.703125 38.8125 
Q 48.828125 37.15625 52.796875 32.3125 
Q 56.78125 27.484375 56.78125 20.515625 
Q 56.78125 9.90625 50.3125 4.234375 
Q 43.84375 -1.421875 31.78125 -1.421875 
Q 19.734375 -1.421875 13.25 4.234375 
Q 6.78125 9.90625 6.78125 20.515625 
Q 6.78125 27.484375 10.78125 32.3125 
Q 14.796875 37.15625 21.921875 38.8125 
z
M 18.3125 54.390625 
Q 18.3125 48.734375 21.84375 45.5625 
Q 25.390625 42.390625 31.78125 42.390625 
Q 38.140625 42.390625 41.71875 45.5625 
Q 45.3125 48.734375 45.3125 54.390625 
Q 45.3125 60.0625 41.71875 63.234375 
Q 38.140625 66.40625 31.78125 66.40625 
Q 25.390625 66.40625 21.84375 63.234375 
Q 18.3125 60.0625 18.3125 54.390625 
z
" id="DejaVuSans-56"/>
     <path d="M 19.1875 8.296875 
L 53.609375 8.296875 
L 53.609375 0 
L 7.328125 0 
L 7.328125 8.296875 
Q 12.9375 14.109375 22.625 23.890625 
Q 32.328125 33.6875 34.8125 36.53125 
Q 39.546875 41.84375 41.421875 45.53125 
Q 43.3125 49.21875 43.3125 52.78125 
Q 43.3125 58.59375 39.234375 62.25 
Q 35.15625 65.921875 28.609375 65.921875 
Q 23.96875 65.921875 18.8125 64.3125 
Q 13.671875 62.703125 7.8125 59.421875 
L 7.8125 69.390625 
Q 13.765625 71.78125 18.9375 73 
Q 24.125 74.21875 28.421875 74.21875 
Q 39.75 74.21875 46.484375 68.546875 
Q 53.21875 62.890625 53.21875 53.421875 
Q 53.21875 48.921875 51.53125 44.890625 
Q 49.859375 40.875 45.40625 35.40625 
Q 44.1875 33.984375 37.640625 27.21875 
Q 31.109375 20.453125 19.1875 8.296875 
z
" id="DejaVuSans-50"/>
     <path d="M 54.890625 54.6875 
L 35.109375 28.078125 
L 55.90625 0 
L 45.3125 0 
L 29.390625 21.484375 
L 13.484375 0 
L 2.875 0 
L 24.125 28.609375 
L 4.6875 54.6875 
L 15.28125 54.6875 
L 29.78125 35.203125 
L 44.28125 54.6875 
z
" id="DejaVuSans-120"/>
    </defs>
    <g transform="translate(469.148438 38.1792)scale(0.12 -0.12)">
     <use xlink:href="#DejaVuSans-83"/>
     <use x="63.476562" xlink:href="#DejaVuSans-116"/>
     <use x="102.685547" xlink:href="#DejaVuSans-114"/>
     <use x="143.767578" xlink:href="#DejaVuSans-101"/>
     <use x="205.291016" xlink:href="#DejaVuSans-97"/>
     <use x="266.570312" xlink:href="#DejaVuSans-109"/>
     <use x="363.982422" xlink:href="#DejaVuSans-95"/>
     <use x="413.982422" xlink:href="#DejaVuSans-49"/>
     <use x="477.605469" xlink:href="#DejaVuSans-56"/>
     <use x="541.228516" xlink:href="#DejaVuSans-49"/>
     <use x="604.851562" xlink:href="#DejaVuSans-50"/>
     <use x="668.474609" xlink:href="#DejaVuSans-48"/>
     <use x="732.097656" xlink:href="#DejaVuSans-53"/>
     <use x="795.720703" xlink:href="#DejaVuSans-95"/>
     <use x="845.720703" xlink:href="#DejaVuSans-49"/>
     <use x="909.34375" xlink:href="#DejaVuSans-53"/>
     <use x="972.966797" xlink:href="#DejaVuSans-51"/>
     <use x="1036.589844" xlink:href="#DejaVuSans-55"/>
     <use x="1100.212891" xlink:href="#DejaVuSans-48"/>
     <use x="1163.835938" xlink:href="#DejaVuSans-54"/>
     <use x="1227.458984" xlink:href="#DejaVuSans-46"/>
     <use x="1259.246094" xlink:href="#DejaVuSans-116"/>
     <use x="1298.455078" xlink:href="#DejaVuSans-120"/>
     <use x="1357.634766" xlink:href="#DejaVuSans-116"/>
    </g>
   </g>
   <g id="Path3DCollection_2">
    <defs>
     <path d="M 0 1.118034 
C 0.296506 1.118034 0.580908 1.000231 0.790569 0.790569 
C 1.000231 0.580908 1.118034 0.296506 1.118034 0 
C 1.118034 -0.296506 1.000231 -0.580908 0.790569 -0.790569 
C 0.580908 -1.000231 0.296506 -1.118034 0 -1.118034 
C -0.296506 -1.118034 -0.580908 -1.000231 -0.790569 -0.790569 
C -1.000231 -0.580908 -1.118034 -0.296506 -1.118034 0 
C -1.118034 0.296506 -1.000231 0.580908 -0.790569 0.790569 
C -0.580908 1.000231 -0.296506 1.118034 0 1.118034 
z
" id="C0_0_e4b1f9d6fe"/>
    </defs>
    <g clip-path="url(#pea264a82d9)">
     <use style="fill:#ff0000;fill-opacity:0.522859;stroke:#ff0000;stroke-opacity:0.522859;" x="600.468071" xlink:href="#C0_0_e4b1f9d6fe" y="146.849908"/>
    </g>
    <g clip-path="url(#pea264a82d9)">
     <use style="fill:#ff0000;fill-opacity:0.487627;stroke:#ff0000;stroke-opacity:0.487627;" x="586.808837" xlink:href="#C0_0_e4b1f9d6fe" y="143.377269"/>
    </g>
    <g clip-path="url(#pea264a82d9)">
     <use style="fill:#ff0000;fill-opacity:0.497952;stroke:#ff0000;stroke-opacity:0.497952;" x="576.437818" xlink:href="#C0_0_e4b1f9d6fe" y="155.788751"/>
    </g>
    <g clip-path="url(#pea264a82d9)">
     <use style="fill:#ff0000;fill-opacity:0.430587;stroke:#ff0000;stroke-opacity:0.430587;" x="570.941338" xlink:href="#C0_0_e4b1f9d6fe" y="173.569258"/>
    </g>
    <g clip-path="url(#pea264a82d9)">
     <use style="fill:#ff0000;fill-opacity:0.559044;stroke:#ff0000;stroke-opacity:0.559044;" x="556.735172" xlink:href="#C0_0_e4b1f9d6fe" y="142.261279"/>
    </g>
    <g clip-path="url(#pea264a82d9)">
     <use style="fill:#ff0000;fill-opacity:0.543745;stroke:#ff0000;stroke-opacity:0.543745;" x="537.919388" xlink:href="#C0_0_e4b1f9d6fe" y="148.409376"/>
    </g>
    <g clip-path="url(#pea264a82d9)">
     <use style="fill:#ff0000;fill-opacity:0.405502;stroke:#ff0000;stroke-opacity:0.405502;" x="553.325613" xlink:href="#C0_0_e4b1f9d6fe" y="181.771463"/>
    </g>
    <g clip-path="url(#pea264a82d9)">
     <use style="fill:#ff0000;fill-opacity:0.402872;stroke:#ff0000;stroke-opacity:0.402872;" x="537.125463" xlink:href="#C0_0_e4b1f9d6fe" y="199.652532"/>
    </g>
    <g clip-path="url(#pea264a82d9)">
     <use style="fill:#ff0000;fill-opacity:0.561461;stroke:#ff0000;stroke-opacity:0.561461;" x="525.034167" xlink:href="#C0_0_e4b1f9d6fe" y="170.286717"/>
    </g>
    <g clip-path="url(#pea264a82d9)">
     <use style="fill:#ff0000;fill-opacity:0.731899;stroke:#ff0000;stroke-opacity:0.731899;" x="589.333168" xlink:href="#C0_0_e4b1f9d6fe" y="237.483287"/>
    </g>
    <g clip-path="url(#pea264a82d9)">
     <use style="fill:#ff0000;fill-opacity:0.559673;stroke:#ff0000;stroke-opacity:0.559673;" x="613.167957" xlink:href="#C0_0_e4b1f9d6fe" y="299.938474"/>
    </g>
    <g clip-path="url(#pea264a82d9)">
     <use style="fill:#ff0000;fill-opacity:0.567924;stroke:#ff0000;stroke-opacity:0.567924;" x="590.61026" xlink:href="#C0_0_e4b1f9d6fe" y="319.572181"/>
    </g>
    <g clip-path="url(#pea264a82d9)">
     <use style="fill:#ff0000;fill-opacity:0.830681;stroke:#ff0000;stroke-opacity:0.830681;" x="569.444424" xlink:href="#C0_0_e4b1f9d6fe" y="275.308437"/>
    </g>
    <g clip-path="url(#pea264a82d9)">
     <use style="fill:#ff0000;fill-opacity:0.866218;stroke:#ff0000;stroke-opacity:0.866218;" x="546.268637" xlink:href="#C0_0_e4b1f9d6fe" y="324.350449"/>
    </g>
    <g clip-path="url(#pea264a82d9)">
     <use style="fill:#ff0000;fill-opacity:0.642744;stroke:#ff0000;stroke-opacity:0.642744;" x="575.725021" xlink:href="#C0_0_e4b1f9d6fe" y="417.989311"/>
    </g>
    <g clip-path="url(#pea264a82d9)">
     <use style="fill:#ff0000;fill-opacity:0.49865;stroke:#ff0000;stroke-opacity:0.49865;" x="535.051478" xlink:href="#C0_0_e4b1f9d6fe" y="318.351861"/>
    </g>
    <g clip-path="url(#pea264a82d9)">
     <use style="fill:#ff0000;fill-opacity:0.443852;stroke:#ff0000;stroke-opacity:0.443852;" x="505.545664" xlink:href="#C0_0_e4b1f9d6fe" y="310.774676"/>
    </g>
    <g clip-path="url(#pea264a82d9)">
     <use style="fill:#ff0000;fill-opacity:0.509332;stroke:#ff0000;stroke-opacity:0.509332;" x="516.172654" xlink:href="#C0_0_e4b1f9d6fe" y="387.832255"/>
    </g>
    <g clip-path="url(#pea264a82d9)">
     <use style="fill:#ff0000;fill-opacity:0.512868;stroke:#ff0000;stroke-opacity:0.512868;" x="535.88122" xlink:href="#C0_0_e4b1f9d6fe" y="319.516383"/>
    </g>
    <g clip-path="url(#pea264a82d9)">
     <use style="fill:#ff0000;fill-opacity:0.437821;stroke:#ff0000;stroke-opacity:0.437821;" x="508.425817" xlink:href="#C0_0_e4b1f9d6fe" y="301.871435"/>
    </g>
    <g clip-path="url(#pea264a82d9)">
     <use style="fill:#ff0000;fill-opacity:0.730496;stroke:#ff0000;stroke-opacity:0.730496;" x="514.864233" xlink:href="#C0_0_e4b1f9d6fe" y="264.526207"/>
    </g>
    <g clip-path="url(#pea264a82d9)">
     <use style="fill:#ff0000;fill-opacity:0.90087;stroke:#ff0000;stroke-opacity:0.90087;" x="527.83645" xlink:href="#C0_0_e4b1f9d6fe" y="359.353876"/>
    </g>
    <g clip-path="url(#pea264a82d9)">
     <use style="fill:#ff0000;fill-opacity:0.748664;stroke:#ff0000;stroke-opacity:0.748664;" x="489.128537" xlink:href="#C0_0_e4b1f9d6fe" y="282.973364"/>
    </g>
    <g clip-path="url(#pea264a82d9)">
     <use style="fill:#ff0000;fill-opacity:0.823695;stroke:#ff0000;stroke-opacity:0.823695;" x="499.403072" xlink:href="#C0_0_e4b1f9d6fe" y="339.531965"/>
    </g>
    <g clip-path="url(#pea264a82d9)">
     <use style="fill:#ff0000;fill-opacity:0.303121;stroke:#ff0000;stroke-opacity:0.303121;" x="520.186981" xlink:href="#C0_0_e4b1f9d6fe" y="326.718231"/>
    </g>
    <g clip-path="url(#pea264a82d9)">
     <use style="fill:#ff0000;fill-opacity:0.3;stroke:#ff0000;stroke-opacity:0.3;" x="522.27921" xlink:href="#C0_0_e4b1f9d6fe" y="354.304986"/>
    </g>
    <g clip-path="url(#pea264a82d9)">
     <use style="fill:#ff0000;fill-opacity:0.847552;stroke:#ff0000;stroke-opacity:0.847552;" x="480.763008" xlink:href="#C0_0_e4b1f9d6fe" y="235.401426"/>
    </g>
    <g clip-path="url(#pea264a82d9)">
     <use style="fill:#ff0000;stroke:#ff0000;" x="495.920684" xlink:href="#C0_0_e4b1f9d6fe" y="324.511973"/>
    </g>
   </g>
  </g>
 </g>
 <defs>
  <clipPath id="pea264a82d9">
   <rect height="552.24" width="345.416182" x="380.251909" y="0"/>
  </clipPath>
 </defs>
</svg>
